<svg width="18" height="15" viewBox="0 0 18 15" fill="none" xmlns="http://www.w3.org/2000/svg">
<path d="M17.7806 8.03055L11.0306 14.7806C10.8899 14.9213 10.699 15.0003 10.5 15.0003C10.301 15.0003 10.1101 14.9213 9.96937 14.7806C9.82864 14.6398 9.74958 14.449 9.74958 14.2499C9.74958 14.0509 9.82864 13.86 9.96937 13.7193L15.4397 8.24993H0.75C0.551088 8.24993 0.360322 8.17091 0.21967 8.03026C0.0790178 7.88961 0 7.69884 0 7.49993C0 7.30102 0.0790178 7.11025 0.21967 6.9696C0.360322 6.82895 0.551088 6.74993 0.75 6.74993H15.4397L9.96937 1.28055C9.82864 1.13982 9.74958 0.948952 9.74958 0.749929C9.74958 0.550906 9.82864 0.360034 9.96937 0.219304C10.1101 0.0785732 10.301 -0.000488281 10.5 -0.000488281C10.699 -0.000488281 10.8899 0.0785732 11.0306 0.219304L17.7806 6.9693C17.8504 7.03896 17.9057 7.12168 17.9434 7.21272C17.9812 7.30377 18.0006 7.40137 18.0006 7.49993C18.0006 7.59849 17.9812 7.69609 17.9434 7.78713C17.9057 7.87818 17.8504 7.9609 17.7806 8.03055Z" fill="#191919"/>
</svg>
