<svg width="40" height="40" viewBox="0 0 40 40" fill="none" xmlns="http://www.w3.org/2000/svg">
<path d="M29.001 20C29.001 20.1989 28.922 20.3897 28.7814 20.5303C28.6407 20.671 28.4499 20.75 28.251 20.75H11.751C11.5521 20.75 11.3614 20.671 11.2207 20.5303C11.0801 20.3897 11.001 20.1989 11.001 20C11.001 19.8011 11.0801 19.6103 11.2207 19.4697C11.3614 19.329 11.5521 19.25 11.751 19.25H28.251C28.4499 19.25 28.6407 19.329 28.7814 19.4697C28.922 19.6103 29.001 19.8011 29.001 20ZM11.751 14.75H28.251C28.4499 14.75 28.6407 14.671 28.7814 14.5303C28.922 14.3897 29.001 14.1989 29.001 14C29.001 13.8011 28.922 13.6103 28.7814 13.4697C28.6407 13.329 28.4499 13.25 28.251 13.25H11.751C11.5521 13.25 11.3614 13.329 11.2207 13.4697C11.0801 13.6103 11.001 13.8011 11.001 14C11.001 14.1989 11.0801 14.3897 11.2207 14.5303C11.3614 14.671 11.5521 14.75 11.751 14.75ZM28.251 25.25H11.751C11.5521 25.25 11.3614 25.329 11.2207 25.4697C11.0801 25.6103 11.001 25.8011 11.001 26C11.001 26.1989 11.0801 26.3897 11.2207 26.5303C11.3614 26.671 11.5521 26.75 11.751 26.75H28.251C28.4499 26.75 28.6407 26.671 28.7814 26.5303C28.922 26.3897 29.001 26.1989 29.001 26C29.001 25.8011 28.922 25.6103 28.7814 25.4697C28.6407 25.329 28.4499 25.25 28.251 25.25Z" fill="#191919"/>
</svg>
