<svg width="97" height="70" viewBox="0 0 97 70" fill="none" xmlns="http://www.w3.org/2000/svg">
<path d="M8.48663 58.0382V65.1587H6.56526V62.178H1.92137V65.1587H0V58.0382C-7.01008e-09 57.7489 0.0570017 57.4625 0.16775 57.1953C0.278498 56.9281 0.440822 56.6853 0.645453 56.4808C0.850084 56.2763 1.09301 56.1141 1.36036 56.0034C1.62772 55.8928 1.91425 55.8359 2.20361 55.8359H6.28302C6.86737 55.8359 7.42779 56.0679 7.84103 56.4809C8.25428 56.8939 8.4865 57.4541 8.48663 58.0382ZM6.56477 60.2574V58.3324C6.56484 58.2568 6.54998 58.1818 6.52106 58.1119C6.49213 58.042 6.44971 57.9784 6.3962 57.9249C6.3427 57.8714 6.27916 57.8289 6.20923 57.7999C6.1393 57.771 6.06435 57.756 5.98865 57.756H2.49701C2.42131 57.756 2.34635 57.771 2.27642 57.7999C2.2065 57.8289 2.14296 57.8714 2.08946 57.9249C2.03595 57.9784 1.99353 58.042 1.9646 58.1119C1.93568 58.1818 1.92082 58.2568 1.92089 58.3324V60.2574H6.56477Z" fill="#1A1A1A"/>
<path d="M16.3632 63.0694C16.4167 63.016 16.4592 62.9525 16.4882 62.8827C16.5171 62.8128 16.532 62.7379 16.5319 62.6623V55.8359H18.4533V62.9565C18.4533 63.2457 18.3963 63.5322 18.2856 63.7994C18.1748 64.0666 18.0125 64.3094 17.8079 64.5139C17.6032 64.7184 17.3603 64.8806 17.093 64.9912C16.8256 65.1019 16.5391 65.1588 16.2497 65.1587H12.1722C11.5879 65.1587 11.0275 64.9267 10.6142 64.5137C10.201 64.1008 9.96876 63.5406 9.96863 62.9565V55.8359H11.89V62.6623C11.89 62.8145 11.9503 62.9606 12.0577 63.0686C12.1651 63.1766 12.3109 63.2377 12.4632 63.2386H15.9549C16.0307 63.2387 16.1058 63.2238 16.1759 63.1948C16.246 63.1657 16.3096 63.1232 16.3632 63.0694Z" fill="#1A1A1A"/>
<path d="M28.0584 57.756H24.6366V65.1587H22.7153V57.756H19.293V55.8354H28.0584V57.756Z" fill="#1A1A1A"/>
<path d="M31.0247 55.8359H35.9479C36.2317 55.8359 36.5128 55.8917 36.775 56.0002C37.0373 56.1087 37.2755 56.2679 37.4762 56.4684C37.677 56.669 37.8362 56.9072 37.9448 57.1693C38.0534 57.4314 38.1093 57.7123 38.1093 57.996V62.9982C38.1094 63.2819 38.0535 63.5629 37.9449 63.8251C37.8363 64.0872 37.6771 64.3254 37.4764 64.5261C37.2757 64.7267 37.0374 64.8859 36.7751 64.9944C36.5129 65.103 36.2318 65.1588 35.9479 65.1587H31.0247C30.4515 65.1587 29.9017 64.9311 29.4963 64.5259C29.091 64.1207 28.8633 63.5712 28.8633 62.9982V57.996C28.8634 57.4231 29.0912 56.8737 29.4965 56.4686C29.9019 56.0635 30.4515 55.8359 31.0247 55.8359ZM31.3899 63.2386H35.5828C35.7433 63.2386 35.8972 63.1749 36.0107 63.0614C36.1242 62.948 36.188 62.7941 36.188 62.6336V58.361C36.188 58.2006 36.1242 58.0467 36.0107 57.9332C35.8972 57.8198 35.7433 57.756 35.5828 57.756H31.3899C31.2294 57.756 31.0754 57.8198 30.9619 57.9332C30.8484 58.0467 30.7847 58.2006 30.7847 58.361V62.6336C30.7847 62.7941 30.8484 62.948 30.9619 63.0614C31.0754 63.1749 31.2294 63.2386 31.3899 63.2386Z" fill="#1A1A1A"/>
<path d="M41.5701 63.0694C41.6783 63.1776 41.825 63.2385 41.978 63.2386H47.7668V65.1587H41.6841C41.3947 65.1588 41.1081 65.1019 40.8407 64.9912C40.5733 64.8805 40.3304 64.7183 40.1258 64.5137C39.9211 64.3092 39.7588 64.0663 39.6481 63.799C39.5374 63.5318 39.4804 63.2453 39.4805 62.956V58.0382C39.4804 57.749 39.5373 57.4626 39.648 57.1955C39.7587 56.9283 39.9209 56.6855 40.1254 56.481C40.33 56.2765 40.5728 56.1143 40.8401 56.0036C41.1074 55.8929 41.3938 55.8359 41.6831 55.8359H47.648V57.756H41.978C41.9022 57.756 41.8273 57.771 41.7573 57.7999C41.6873 57.8289 41.6238 57.8713 41.5702 57.9249C41.5167 57.9784 41.4742 58.0419 41.4452 58.1119C41.4163 58.1818 41.4014 58.2567 41.4014 58.3324V62.6623C41.4016 62.8149 41.4623 62.9613 41.5701 63.0694Z" fill="#1A1A1A"/>
<path d="M57.2151 63.2386V65.1587H48.9297V55.8359H57.0948V57.756H50.8506V59.537H56.7345V61.4576H50.8506V63.2386H57.2151Z" fill="#1A1A1A"/>
<path d="M67.7693 55.8354V65.151H65.3887L60.4839 58.8298V65.1592H58.5625V55.8354H60.7239L65.8484 62.4795V55.8354H67.7693Z" fill="#1A1A1A"/>
<path d="M77.4413 57.756H74.019V65.1587H72.0981V57.756H68.6758V55.8354H77.4413V57.756Z" fill="#1A1A1A"/>
<path d="M86.633 63.2386V65.1587H78.3477V55.8359H86.5132V57.756H80.2685V59.537H86.1524V61.4576H80.2685V63.2386H86.633Z" fill="#1A1A1A"/>
<path d="M91.7941 61.6976H89.9057V65.1587H87.9844V55.8359H94.1083C94.3921 55.8359 94.6732 55.8917 94.9354 56.0002C95.1977 56.1087 95.4359 56.2679 95.6367 56.4684C95.8374 56.669 95.9966 56.9072 96.1052 57.1693C96.2138 57.4314 96.2697 57.7123 96.2697 57.996V59.537C96.2695 60.0753 96.0683 60.5941 95.7054 60.9919C95.3426 61.3896 94.8443 61.6377 94.3081 61.6874L96.9914 65.1587H94.4696L91.7941 61.6976ZM89.9053 59.7775H93.7422C93.8217 59.7776 93.9005 59.762 93.9739 59.7317C94.0474 59.7013 94.1142 59.6568 94.1704 59.6006C94.2267 59.5444 94.2712 59.4776 94.3016 59.4042C94.332 59.3307 94.3475 59.252 94.3474 59.1725V58.361C94.3474 58.2006 94.2836 58.0467 94.1701 57.9332C94.0566 57.8198 93.9027 57.756 93.7422 57.756H89.9048L89.9053 59.7775Z" fill="#1A1A1A"/>
<path d="M0 69.3975L0.911707 67.0222H1.40636L2.33649 69.3975H1.83748L1.63525 68.8594H0.67893L0.48495 69.3975H0ZM0.788044 68.4842H1.52323L1.14982 67.5201L0.788044 68.4842Z" fill="#1A1A1A"/>
<path d="M2.66406 69.3975V67.0222H3.51515C3.74696 67.0222 3.93399 67.0728 4.07624 67.1739C4.21849 67.2751 4.28945 67.4247 4.28913 67.6228C4.29013 67.6954 4.27349 67.7671 4.24064 67.8318C4.17446 67.9589 4.06661 68.0596 3.93512 68.1168C4.0613 68.1557 4.17261 68.2321 4.25421 68.3359C4.34017 68.4465 4.38462 68.5837 4.37982 68.7237C4.38229 68.8488 4.34715 68.9717 4.27895 69.0766C4.2075 69.1818 4.10759 69.2645 3.99089 69.3151C3.85173 69.3753 3.70116 69.4046 3.54958 69.4009L2.66406 69.3975ZM3.10537 68.0228H3.44968C3.52368 68.0245 3.59721 68.0106 3.66548 67.982C3.72353 67.9581 3.77327 67.9176 3.80854 67.8657C3.84263 67.8105 3.85951 67.7463 3.85704 67.6815C3.85966 67.6361 3.85123 67.5907 3.83248 67.5492C3.81374 67.5078 3.78522 67.4715 3.74938 67.4435C3.65858 67.3829 3.55036 67.354 3.44144 67.3611H3.10537V68.0228ZM3.10537 69.0596H3.47684C3.62523 69.0596 3.73629 69.0299 3.81 68.9704C3.84781 68.9375 3.87744 68.8962 3.89654 68.8499C3.91565 68.8035 3.92371 68.7534 3.92008 68.7033C3.92328 68.6533 3.91513 68.6032 3.89623 68.5568C3.87734 68.5104 3.84819 68.4689 3.81097 68.4353C3.73758 68.3729 3.62685 68.3417 3.47878 68.3417H3.10537V69.0596Z" fill="#1A1A1A"/>
<path d="M5.28211 69.3975V67.425H4.625V67.0212H6.38246V67.425H5.72535V69.3975H5.28211Z" fill="#1A1A1A"/>
<path d="M7.77214 69.4483C7.60093 69.45 7.43106 69.418 7.27216 69.3543C7.12288 69.294 6.98693 69.2049 6.87207 69.092C6.75877 68.9797 6.66936 68.8457 6.60923 68.6979C6.48442 68.3835 6.48442 68.0332 6.60923 67.7187C6.66949 67.5712 6.75889 67.4373 6.87207 67.3251C6.98673 67.2122 7.12273 67.1232 7.27216 67.0633C7.43121 67.0002 7.60102 66.9686 7.77214 66.9703C7.94279 66.9692 8.11195 67.0021 8.2697 67.0672C8.41884 67.1284 8.55446 67.2183 8.66881 67.3319C8.84146 67.5094 8.95849 67.7333 9.00553 67.9764C9.05257 68.2194 9.02757 68.4709 8.9336 68.6999C8.87219 68.8474 8.7822 68.9813 8.66881 69.094C8.55422 69.2067 8.41862 69.2958 8.2697 69.3562C8.11148 69.4192 7.94243 69.4505 7.77214 69.4483ZM7.77214 69.0324C7.87939 69.0334 7.9858 69.0135 8.08542 68.9738C8.18139 68.9359 8.2684 68.8785 8.34089 68.8051C8.41337 68.7318 8.46973 68.6441 8.50635 68.5477C8.54809 68.4395 8.56867 68.3243 8.56697 68.2083C8.57082 68.0562 8.53453 67.9057 8.46174 67.7721C8.39485 67.6519 8.29599 67.5526 8.1761 67.4851C8.05272 67.4163 7.9134 67.3812 7.77214 67.3833C7.66465 67.3821 7.55795 67.4017 7.45789 67.441C7.36332 67.4785 7.27748 67.5351 7.20572 67.6072C7.13272 67.6816 7.07562 67.77 7.03793 67.8671C6.99619 67.9753 6.97562 68.0905 6.97731 68.2064C6.97329 68.3585 7.00942 68.509 7.08206 68.6427C7.14826 68.7629 7.24667 68.8622 7.36624 68.9297C7.49021 68.9988 7.63017 69.0343 7.77214 69.0324Z" fill="#1A1A1A"/>
<path d="M9.48035 69.3975V67.0222H9.90613L10.8537 68.5734H10.6806L11.5889 67.0222H12.0103V69.3975H11.5807L11.5875 67.5981L11.6689 67.6272L10.9013 68.9069H10.5909L9.80429 67.6272L9.87752 67.5981L9.88431 69.3975H9.48035Z" fill="#1A1A1A"/>
<path d="M13.7175 69.4483C13.5462 69.45 13.3764 69.418 13.2175 69.3543C13.0682 69.294 12.9322 69.2049 12.8174 69.092C12.7041 68.9797 12.6147 68.8457 12.5545 68.6979C12.4297 68.3835 12.4297 68.0332 12.5545 67.7187C12.6148 67.5712 12.7042 67.4373 12.8174 67.3251C12.932 67.2122 13.068 67.1232 13.2175 67.0633C13.3765 67.0002 13.5463 66.9686 13.7175 66.9703C13.8881 66.9692 14.0573 67.0021 14.215 67.0672C14.3642 67.1283 14.4999 67.2182 14.6141 67.3319C14.7868 67.5094 14.9038 67.7333 14.9508 67.9764C14.9979 68.2194 14.9729 68.4709 14.8789 68.6999C14.8175 68.8479 14.7271 68.9822 14.6131 69.0949C14.4991 69.2077 14.3638 69.2965 14.215 69.3562C14.0568 69.4192 13.8877 69.4505 13.7175 69.4483ZM13.7175 69.0324C13.8247 69.0334 13.9311 69.0135 14.0307 68.9738C14.1256 68.9362 14.2118 68.8796 14.2839 68.8075C14.3572 68.7334 14.4145 68.6449 14.4522 68.5477C14.4935 68.4394 14.5139 68.3242 14.5123 68.2083C14.5161 68.0562 14.4798 67.9057 14.4071 67.7721C14.3402 67.652 14.2415 67.5527 14.1219 67.4851C13.9983 67.4164 13.8589 67.3813 13.7175 67.3833C13.61 67.3821 13.5033 67.4017 13.4032 67.441C13.3087 67.4784 13.223 67.535 13.1515 67.6072C13.0782 67.6814 13.0209 67.7699 12.9832 67.8671C12.9415 67.9753 12.9209 68.0905 12.9226 68.2064C12.9186 68.3585 12.9547 68.509 13.0274 68.6427C13.0936 68.7629 13.192 68.8622 13.3116 68.9297C13.4355 68.9988 13.5755 69.0343 13.7175 69.0324Z" fill="#1A1A1A"/>
<path d="M15.4258 69.3975V67.0222H16.9607V67.41H15.8671V67.9917H16.2764C16.5379 67.9917 16.7471 68.051 16.9039 68.1696C17.0605 68.2889 17.1391 68.4639 17.1391 68.6961C17.1431 68.8306 17.1069 68.9632 17.0353 69.0771C16.9631 69.1857 16.8598 69.2702 16.739 69.3195C16.5915 69.3787 16.4334 69.4071 16.2744 69.4028L15.4258 69.3975ZM15.8671 69.0582H16.2405C16.3821 69.0582 16.4911 69.0272 16.5674 68.9651C16.6062 68.9321 16.6367 68.8905 16.6567 68.8437C16.6766 68.7968 16.6854 68.7459 16.6823 68.6951C16.6847 68.6445 16.676 68.5939 16.6566 68.5471C16.6372 68.5003 16.6077 68.4583 16.5703 68.4241C16.4822 68.3546 16.3714 68.32 16.2594 68.3272H15.8671V69.0582Z" fill="#1A1A1A"/>
<path d="M17.6055 69.3975V67.0222H18.0419V68.6873L19.1573 67.0222H19.5909V69.3975H19.1544V67.7203L18.039 69.399L17.6055 69.3975Z" fill="#1A1A1A"/>
<path d="M20.1268 69.4402L19.9688 69.0344C20.0365 69.0141 20.1016 68.9858 20.1627 68.9501C20.2173 68.9172 20.2636 68.8723 20.298 68.8187C20.3388 68.7507 20.3679 68.6763 20.3839 68.5986C20.4077 68.4846 20.4224 68.3689 20.428 68.2525C20.4364 68.1129 20.4406 67.9423 20.4406 67.7406V67.0212H22.1452V69.3965H21.7039V67.4241H20.8615V67.7232C20.8615 67.9675 20.8539 68.179 20.8388 68.3577C20.8279 68.5112 20.8032 68.6634 20.765 68.8124C20.7376 68.9226 20.6913 69.0272 20.6283 69.1217C20.573 69.2019 20.5012 69.2695 20.4178 69.3199C20.3268 69.3731 20.2289 69.4136 20.1268 69.4402Z" fill="#1A1A1A"/>
<path d="M22.7461 69.3975V67.0222H23.1825V68.6873L24.2979 67.0222H24.7291V69.3975H24.2926V67.7203L23.1772 69.399L22.7461 69.3975Z" fill="#1A1A1A"/>
<path d="M26.1406 69.3975V67.0222H28.1032V69.3975H27.6619V67.4251H26.5819V69.3975H26.1406Z" fill="#1A1A1A"/>
<path d="M29.8112 69.4483C29.64 69.45 29.4701 69.418 29.3112 69.3543C29.1618 69.2942 29.0258 69.2051 28.9111 69.092C28.7978 68.9796 28.7083 68.8456 28.6478 68.6979C28.5237 68.3833 28.5237 68.0333 28.6478 67.7187C28.7086 67.5705 28.7987 67.4361 28.9127 67.3235C29.0267 67.2109 29.1622 67.1224 29.3112 67.0633C29.4702 67.0002 29.6401 66.9686 29.8112 66.9703C29.9818 66.9692 30.151 67.0021 30.3087 67.0672C30.4579 67.1284 30.5935 67.2183 30.7078 67.3319C30.8805 67.5094 30.9975 67.7333 31.0446 67.9764C31.0916 68.2194 31.0666 68.4709 30.9726 68.6999C30.9112 68.8474 30.8212 68.9813 30.7078 69.094C30.5933 69.2067 30.4577 69.2958 30.3087 69.3562C30.1505 69.4192 29.9815 69.4505 29.8112 69.4483ZM29.8112 69.0324C29.9184 69.0334 30.0248 69.0135 30.1245 68.9738C30.2204 68.9359 30.3074 68.8785 30.3799 68.8051C30.4524 68.7318 30.5088 68.6441 30.5454 68.5477C30.587 68.4394 30.6074 68.3242 30.6055 68.2083C30.6096 68.0562 30.5733 67.9056 30.5003 67.7721C30.4337 67.6518 30.335 67.5524 30.2151 67.4851C30.0918 67.4163 29.9524 67.3812 29.8112 67.3833C29.7037 67.382 29.597 67.4016 29.4969 67.441C29.4023 67.4784 29.3164 67.535 29.2448 67.6072C29.1716 67.6815 29.1144 67.7699 29.0765 67.8671C29.0351 67.9754 29.0147 68.0905 29.0163 68.2064C29.0125 68.3584 29.0484 68.5088 29.1206 68.6427C29.187 68.7629 29.2856 68.8623 29.4053 68.9297C29.5292 68.9989 29.6692 69.0344 29.8112 69.0324Z" fill="#1A1A1A"/>
<path d="M33.0146 69.3975V67.425H32.1519V67.7241C32.1543 67.9643 32.1404 68.2043 32.1102 68.4425C32.0904 68.6096 32.0465 68.7729 31.9797 68.9273C31.9275 69.0455 31.8463 69.1485 31.7435 69.2269C31.6363 69.3035 31.5148 69.3579 31.3861 69.3868L31.2314 69.0233C31.3208 69.0047 31.4054 68.9683 31.4802 68.9161C31.5504 68.8618 31.6032 68.7882 31.632 68.7043C31.6744 68.5821 31.7002 68.4548 31.7086 68.3257C31.7232 68.1673 31.7305 67.966 31.7305 67.7217V67.0188H33.4559V69.3941L33.0146 69.3975ZM31.2305 69.9986V69.0242L31.5108 69.0378L31.6635 68.9922H33.8351V69.9986H33.4176V69.3975H31.649V69.9986H31.2305Z" fill="#1A1A1A"/>
<path d="M35.7238 69.4484C35.5543 69.4503 35.3854 69.4268 35.2228 69.3786C35.0792 69.3358 34.9443 69.268 34.8242 69.1784L35.026 68.8289C35.1127 68.9031 35.2128 68.9604 35.3208 68.9975C35.4365 69.0392 35.5586 69.0602 35.6816 69.0596C35.7775 69.0618 35.873 69.0464 35.9634 69.014C36.035 68.9886 36.0986 68.9446 36.1476 68.8865C36.1911 68.8328 36.2142 68.7656 36.2131 68.6965C36.2161 68.6475 36.2072 68.5984 36.1871 68.5536C36.167 68.5088 36.1363 68.4695 36.0977 68.4391C36.022 68.38 35.9034 68.3504 35.7417 68.3504H35.2713V68.0023H35.7078C35.7873 68.0042 35.8664 67.991 35.9411 67.9636C36.0009 67.9417 36.0531 67.903 36.0914 67.8521C36.1274 67.8013 36.1459 67.7402 36.1443 67.678C36.1462 67.6179 36.1279 67.5589 36.0924 67.5103C36.0525 67.4611 35.9985 67.4253 35.9377 67.4076C35.8567 67.3824 35.7722 67.3707 35.6874 67.3726C35.5789 67.3726 35.4712 67.3909 35.3688 67.4269C35.2724 67.4599 35.1833 67.5113 35.1065 67.5782L34.9013 67.2539C35.0102 67.1589 35.1372 67.087 35.2747 67.0425C35.4258 66.9927 35.5841 66.9678 35.7432 66.9688C35.8967 66.9652 36.0494 66.9909 36.1932 67.0445C36.3092 67.0868 36.4103 67.1619 36.4842 67.2607C36.5535 67.36 36.589 67.479 36.5856 67.6C36.5856 67.6732 36.569 67.7455 36.5371 67.8114C36.5044 67.8793 36.4605 67.9413 36.4071 67.9946C36.3566 68.0461 36.2971 68.0878 36.2315 68.1177C36.3577 68.1563 36.4695 68.2314 36.5531 68.3334C36.6377 68.4416 36.6808 68.5763 36.6748 68.7135C36.676 68.8473 36.6346 68.978 36.5565 69.0867C36.4716 69.2026 36.3575 69.2937 36.2257 69.3509C36.0675 69.4195 35.8962 69.4528 35.7238 69.4484Z" fill="#1A1A1A"/>
<path d="M36.8672 69.3975L37.7789 67.0222H38.2711L39.2017 69.3975H38.7042L38.5024 68.8594H37.5461L37.3521 69.3975H36.8672ZM37.6547 68.4842H38.3904L38.0165 67.5201L37.6547 68.4842Z" fill="#1A1A1A"/>
<path d="M39.5273 69.3975V67.0222H39.9687V67.9457H40.4119V68.3504H39.9687V69.3994L39.5273 69.3975ZM40.9963 69.3975L40.0264 68.1517L40.8905 67.0212H41.4376L40.5647 68.1497L41.5632 69.3975H40.9963Z" fill="#1A1A1A"/>
<path d="M41.6758 69.3975L42.588 67.0222H43.0802L44.0108 69.3975H43.5133L43.311 68.8594H42.3552L42.1612 69.3975H41.6758ZM42.4638 68.4842H43.199L42.8256 67.5201L42.4638 68.4842Z" fill="#1A1A1A"/>
<path d="M45.0212 69.4484C44.8516 69.4504 44.6827 69.4269 44.5202 69.3786C44.3764 69.3359 44.2413 69.2681 44.1211 69.1784L44.3228 68.8289C44.4096 68.9031 44.5097 68.9604 44.6177 68.9976C44.7334 69.0392 44.8555 69.0602 44.9785 69.0596C45.0744 69.0618 45.1699 69.0464 45.2602 69.014C45.332 68.9888 45.3956 68.9448 45.4445 68.8865C45.4879 68.8328 45.5111 68.7656 45.51 68.6965C45.5131 68.6475 45.5042 68.5984 45.4841 68.5536C45.464 68.5087 45.4333 68.4694 45.3946 68.4391C45.3176 68.3809 45.1982 68.3519 45.0362 68.3519H44.5682V68.0038H45.0047C45.0842 68.0056 45.1633 67.9925 45.2379 67.965C45.2978 67.9432 45.35 67.9044 45.3883 67.8535C45.4245 67.8029 45.4431 67.7417 45.4411 67.6795C45.4431 67.6194 45.4248 67.5603 45.3892 67.5118C45.3493 67.4626 45.2954 67.4267 45.2345 67.409C45.1536 67.3839 45.0691 67.3721 44.9843 67.3741C44.8756 67.3743 44.7677 67.393 44.6652 67.4294C44.5689 67.4622 44.4799 67.5136 44.4033 67.5806L44.1977 67.2563C44.3066 67.1613 44.4336 67.0894 44.5711 67.045C44.7224 66.9951 44.8808 66.9702 45.0401 66.9713C45.1934 66.9677 45.346 66.9933 45.4896 67.0469C45.6056 67.0891 45.7068 67.1642 45.7806 67.2631C45.8499 67.3624 45.8854 67.4814 45.8819 67.6024C45.882 67.6756 45.8654 67.7479 45.8335 67.8138C45.8008 67.8818 45.7569 67.9437 45.7035 67.997C45.6531 68.0486 45.5936 68.0903 45.5279 68.1201C45.6541 68.1588 45.7659 68.2338 45.8495 68.3359C45.9342 68.4439 45.9774 68.5788 45.9712 68.7159C45.9726 68.8498 45.9311 68.9806 45.8528 69.0892C45.7681 69.2051 45.6539 69.2963 45.5221 69.3534C45.364 69.421 45.1931 69.4534 45.0212 69.4484Z" fill="#1A1A1A"/>
<path d="M47.4023 69.3975V67.0222H47.8388V68.6873L48.9542 67.0222H49.3858V69.3975H48.9493V67.7203L47.834 69.399L47.4023 69.3975Z" fill="#1A1A1A"/>
<path d="M50.6657 69.4484C50.4961 69.4503 50.3273 69.4268 50.1647 69.3786C50.021 69.3358 49.8858 69.268 49.7656 69.1784L49.9678 68.8289C50.0545 68.9031 50.1543 68.9604 50.2622 68.9975C50.3779 69.0392 50.5 69.0602 50.623 69.0596C50.7191 69.0618 50.8148 69.0463 50.9053 69.014C50.9769 68.9886 51.0405 68.9446 51.0895 68.8865C51.1326 68.8327 51.1556 68.7655 51.1545 68.6965C51.1576 68.6475 51.1487 68.5984 51.1286 68.5536C51.1085 68.5087 51.0778 68.4694 51.0391 68.4391C50.9625 68.3809 50.8451 68.3519 50.6807 68.3519H50.2108V68.0038H50.6473C50.7269 68.0056 50.8062 67.9925 50.881 67.965C50.9407 67.9429 50.9929 67.9042 51.0313 67.8535C51.0672 67.8027 51.0856 67.7417 51.0837 67.6795C51.0858 67.6194 51.0677 67.5604 51.0323 67.5118C50.9922 67.4628 50.9383 67.427 50.8776 67.409C50.7965 67.3839 50.7118 67.3721 50.6269 67.3741C50.5185 67.374 50.411 67.3924 50.3088 67.4284C50.2123 67.4613 50.1232 67.5126 50.0464 67.5796L49.8408 67.2553C49.9499 67.1605 50.0771 67.0886 50.2147 67.044C50.3658 66.9941 50.524 66.9692 50.6831 66.9703C50.8366 66.9667 50.9893 66.9924 51.1332 67.0459C51.2491 67.0882 51.3502 67.1634 51.4242 67.2621C51.4933 67.3615 51.5287 67.4805 51.525 67.6015C51.5249 67.6746 51.5083 67.7469 51.4765 67.8128C51.4439 67.8808 51.3999 67.9428 51.3466 67.996C51.296 68.0477 51.2363 68.0894 51.1705 68.1192C51.2968 68.1576 51.4089 68.2327 51.4925 68.3349C51.5772 68.443 51.6202 68.5778 51.6138 68.7149C51.6151 68.8487 51.5738 68.9794 51.4959 69.0882C51.411 69.2041 51.2966 69.2953 51.1647 69.3524C51.0073 69.4201 50.837 69.4529 50.6657 69.4484Z" fill="#1A1A1A"/>
<path d="M52.707 69.3975L53.4029 68.4062C53.2408 68.3759 53.0925 68.2952 52.9791 68.1755C52.8751 68.0545 52.8208 67.8986 52.8273 67.7392C52.8233 67.6022 52.8603 67.4672 52.9335 67.3514C53.0072 67.2414 53.1118 67.1555 53.2342 67.1047C53.3789 67.0445 53.5347 67.0152 53.6915 67.0189H54.578V69.3941H54.1367V68.4639H53.8496L53.2191 69.3941L52.707 69.3975ZM53.7017 68.1057H54.1381V67.3911H53.722C53.6057 67.3843 53.4902 67.415 53.3928 67.4789C53.3528 67.5093 53.3211 67.5491 53.3003 67.5948C53.2796 67.6405 53.2705 67.6906 53.2739 67.7407C53.2707 67.7911 53.2788 67.8415 53.2976 67.8884C53.3164 67.9353 53.3454 67.9774 53.3826 68.0116C53.4534 68.0742 53.5605 68.1081 53.7017 68.1081V68.1057Z" fill="#1A1A1A"/>
<path d="M55.1758 69.3975V67.0222H57.1389V69.3975H56.6971V67.4251H55.6176V69.3975H55.1758Z" fill="#1A1A1A"/>
<path d="M58.8464 69.4483C58.6751 69.45 58.5053 69.418 58.3464 69.3543C58.1971 69.294 58.0612 69.2049 57.9463 69.092C57.833 68.9797 57.7436 68.8457 57.6834 68.6979C57.5586 68.3835 57.5586 68.0332 57.6834 67.7187C57.7437 67.5712 57.8331 67.4373 57.9463 67.3251C58.0609 67.2122 58.197 67.1232 58.3464 67.0633C58.5054 67.0002 58.6752 66.9686 58.8464 66.9703C59.017 66.9692 59.1862 67.0021 59.3439 67.0672C59.4939 67.1282 59.6302 67.2183 59.745 67.3324C59.9176 67.5098 60.0347 67.7338 60.0817 67.9769C60.1287 68.2199 60.1037 68.4713 60.0098 68.7004C59.9483 68.8484 59.858 68.9827 59.744 69.0954C59.63 69.2081 59.4946 69.297 59.3459 69.3567C59.187 69.4198 59.0173 69.4509 58.8464 69.4483ZM58.8464 69.0324C58.9536 69.0334 59.06 69.0135 59.1596 68.9738C59.2545 68.9362 59.3407 68.8796 59.4128 68.8075C59.4861 68.7334 59.5434 68.6449 59.5811 68.5477C59.6224 68.4394 59.6428 68.3242 59.6412 68.2083C59.6453 68.0562 59.609 67.9056 59.536 67.7721C59.4691 67.652 59.3705 67.5527 59.2508 67.4851C59.1272 67.4164 58.9878 67.3813 58.8464 67.3833C58.739 67.3821 58.6325 67.4016 58.5326 67.441C58.4379 67.4783 58.352 67.5349 58.2804 67.6072C58.2071 67.6814 58.1498 67.7699 58.1121 67.8671C58.0704 67.9753 58.0498 68.0905 58.0515 68.2064C58.0475 68.3585 58.0836 68.509 58.1563 68.6427C58.2225 68.7629 58.3209 68.8622 58.4405 68.9297C58.5644 68.9988 58.7044 69.0343 58.8464 69.0324Z" fill="#1A1A1A"/>
<path d="M60.5547 69.3975V67.0222H60.996V67.9457H62.076V67.0222H62.5178V69.3975H62.076V68.3504H60.996V69.3995L60.5547 69.3975Z" fill="#1A1A1A"/>
<path d="M63.1172 69.3975V67.0222H63.5536V68.6873L64.669 67.0222H65.1001V69.3975H64.6637V67.7203L63.5483 69.399L63.1172 69.3975Z" fill="#1A1A1A"/>
<path d="M65.6992 69.3975V67.0222H66.1357V68.6873L67.2511 67.0222H67.6827V69.3975H67.2462V67.7203L66.1308 69.399L65.6992 69.3975Z" fill="#1A1A1A"/>
<path d="M68.2285 69.9423L68.0859 69.7484C68.172 69.7096 68.252 69.6587 68.3236 69.5971C68.3834 69.5487 68.4329 69.4887 68.469 69.4207C68.4162 69.4249 68.363 69.4161 68.3143 69.395C68.2695 69.3763 68.231 69.3452 68.2033 69.3053C68.175 69.2645 68.1604 69.2158 68.1616 69.1662C68.1601 69.1295 68.1664 69.0929 68.18 69.0589C68.1936 69.0248 68.2143 68.994 68.2406 68.9684C68.2677 68.943 68.2996 68.9233 68.3344 68.9103C68.3692 68.8973 68.4062 68.8914 68.4433 68.8928C68.4854 68.8913 68.5274 68.8988 68.5663 68.9147C68.6053 68.9307 68.6404 68.9548 68.6693 68.9854C68.7299 69.0549 68.7609 69.1454 68.7557 69.2374C68.755 69.3231 68.7349 69.4074 68.697 69.4842C68.653 69.5734 68.5935 69.6541 68.5214 69.7227C68.4331 69.8075 68.3347 69.8813 68.2285 69.9423Z" fill="#1A1A1A"/>
<path d="M70.0312 69.3975V67.0222H70.4726V67.9457H70.9163V68.3504H70.4726V69.3994L70.0312 69.3975ZM71.5002 69.3975L70.5303 68.1517L71.3944 67.0212H71.9415L71.0686 68.1497L72.0671 69.3975H71.5002Z" fill="#1A1A1A"/>
<path d="M73.3737 69.4483C73.2025 69.45 73.0326 69.418 72.8737 69.3543C72.7244 69.294 72.5885 69.2049 72.4736 69.092C72.3603 68.9797 72.2709 68.8457 72.2108 68.6979C72.086 68.3835 72.086 68.0332 72.2108 67.7187C72.2711 67.5712 72.3604 67.4373 72.4736 67.3251C72.5883 67.2122 72.7243 67.1232 72.8737 67.0633C73.0328 67.0002 73.2026 66.9686 73.3737 66.9703C73.5444 66.9692 73.7135 67.0021 73.8713 67.0672C74.0204 67.1284 74.156 67.2183 74.2704 67.3319C74.443 67.5094 74.5601 67.7333 74.6071 67.9764C74.6541 68.2194 74.6291 68.4709 74.5352 68.6999C74.4738 68.8474 74.3838 68.9813 74.2704 69.094C74.1558 69.2067 74.0202 69.2958 73.8713 69.3562C73.713 69.4192 73.544 69.4505 73.3737 69.4483ZM73.3737 69.0324C73.481 69.0334 73.5874 69.0135 73.687 68.9738C73.7829 68.9359 73.87 68.8785 73.9424 68.8051C74.0149 68.7318 74.0713 68.6441 74.1079 68.5477C74.1496 68.4395 74.1702 68.3243 74.1685 68.2083C74.1724 68.0562 74.1361 67.9057 74.0633 67.7721C73.9964 67.6519 73.8975 67.5526 73.7777 67.4851C73.6543 67.4163 73.515 67.3812 73.3737 67.3833C73.2662 67.3821 73.1595 67.4017 73.0595 67.441C72.9649 67.4785 72.879 67.5351 72.8073 67.6072C72.7343 67.6816 72.6772 67.77 72.6395 67.8671C72.5978 67.9753 72.5772 68.0905 72.5789 68.2064C72.5748 68.3585 72.611 68.509 72.6836 68.6427C72.7498 68.7629 72.8482 68.8622 72.9678 68.9297C73.0918 68.9988 73.2317 69.0343 73.3737 69.0324Z" fill="#1A1A1A"/>
<path d="M75.0819 69.3975V67.0222H75.9737C76.13 67.0192 76.2851 67.0496 76.4286 67.1114C76.5549 67.1656 76.6631 67.2547 76.7404 67.3683C76.8179 67.4886 76.8571 67.6295 76.8529 67.7726C76.8577 67.9148 76.8215 68.0555 76.7487 68.1778C76.6761 68.2915 76.5703 68.3802 76.4456 68.4318C76.2927 68.4939 76.1285 68.5236 75.9636 68.5191H75.5237V69.3984L75.0819 69.3975ZM75.5237 68.1429H75.9602C76.0772 68.15 76.1934 68.1191 76.2914 68.0547C76.3703 67.9959 76.4099 67.9043 76.4102 67.7798C76.4139 67.7268 76.4048 67.6736 76.3838 67.6248C76.3627 67.5759 76.3301 67.5328 76.289 67.4992C76.1945 67.4311 76.0799 67.3969 75.9636 67.4022H75.5222L75.5237 68.1429Z" fill="#1A1A1A"/>
<path d="M77.2617 69.3975V67.0222H78.8427V67.41H77.703V67.9854H78.6778V68.3471H77.703V69.0092H78.8538V69.397L77.2617 69.3975Z" fill="#1A1A1A"/>
<path d="M79.3672 69.3975V67.0222H79.8036V68.6873L80.919 67.0222H81.3501V69.3975H80.9137V67.7203L79.7983 69.399L79.3672 69.3975Z" fill="#1A1A1A"/>
<path d="M82.7656 69.3975V67.0222H83.2021V68.6873L84.3175 67.0222H84.7491V69.3975H84.3126V67.7203L83.1972 69.399L82.7656 69.3975Z" fill="#1A1A1A"/>
<path d="M86.1602 69.3975V67.0222H86.6019V67.9457H87.0471V68.3504H86.6039V69.3994L86.1602 69.3975ZM87.6291 69.3975L86.6592 68.1517L87.5234 67.0212H88.0704L87.1975 68.1497L88.196 69.3975H87.6291Z" fill="#1A1A1A"/>
<path d="M88.5664 69.3975V67.0222H89.0029V68.6873L90.1182 67.0222H90.5499V69.3975H90.1134V67.7203L88.998 69.399L88.5664 69.3975Z" fill="#1A1A1A"/>
<path d="M91.5882 69.3975V67.425H90.9297V67.0212H92.6871V67.425H92.03V69.3975H91.5882Z" fill="#1A1A1A"/>
<path d="M92.6445 69.3975L93.5562 67.0222H94.0485L94.9791 69.3975H94.4815L94.2798 68.8594H93.3235L93.1295 69.3975H92.6445ZM93.4321 68.4842H94.1678L93.7939 67.5201L93.4321 68.4842Z" fill="#1A1A1A"/>
<path d="M95.1172 69.3975L95.8136 68.4062C95.6514 68.376 95.5031 68.2952 95.3897 68.1755C95.2854 68.0547 95.2311 67.8986 95.2379 67.7392C95.2339 67.6022 95.2709 67.4672 95.3441 67.3514C95.4179 67.2414 95.5225 67.1555 95.6448 67.1047C95.7896 67.0445 95.9454 67.0152 96.1021 67.0189H96.9886V69.3941H96.5473V68.4639H96.2612L95.6307 69.3941L95.1172 69.3975ZM96.1123 68.1057H96.5488V67.3911H96.1327C96.0162 67.3843 95.9006 67.4151 95.8029 67.4789C95.7631 67.5094 95.7314 67.5492 95.7106 67.5949C95.6899 67.6405 95.6808 67.6906 95.6841 67.7407C95.6809 67.7911 95.689 67.8415 95.7078 67.8884C95.7266 67.9353 95.7556 67.9774 95.7927 68.0116C95.864 68.0742 95.9702 68.1081 96.1123 68.1081V68.1057Z" fill="#1A1A1A"/>
<path d="M48.5992 0L18.543 49.3713L30.9417 45.8602L34.1909 45.9193C34.2938 45.9216 34.3961 45.9022 34.4911 45.8625C34.586 45.8227 34.6716 45.7635 34.7422 45.6886C35.1166 45.295 35.8416 44.499 36.0671 44.0283C36.0671 44.0283 35.4585 43.2479 34.832 42.9846C34.5895 42.8833 33.8868 42.704 33.0861 42.5387C31.7976 42.272 30.2574 42.0447 29.9878 42.2405L30.1871 37.5442C30.2709 37.6588 30.3788 37.7537 30.5033 37.822C31.1454 38.1749 32.4848 38.7915 34.4615 39.0906C34.4615 39.0906 34.7418 39.1294 35.1535 39.1425C35.6292 39.158 36.2786 39.1371 36.8673 38.981C36.615 38.4187 36.4328 37.8276 36.3246 37.2209C36.3145 37.1608 36.3052 37.0997 36.297 37.0382C36.297 37.0382 30.9936 36.185 30.3496 35.5228L33.3179 32.2502C33.3179 32.2502 33.6303 29.7571 35.4241 28.0513C35.0265 28.9007 34.7194 29.7897 34.508 30.7034C36.3673 30.558 38.4628 30.4755 40.4588 30.428C44.7618 30.3267 48.6012 30.3941 48.6012 30.3941C48.6012 30.3941 52.4395 30.3267 56.7435 30.428C58.7395 30.4765 60.8365 30.5594 62.6953 30.7034C62.484 29.79 62.1771 28.9014 61.7797 28.0523C63.574 29.7586 63.8844 32.2502 63.8844 32.2502L66.8542 35.5228C66.2092 36.185 60.9058 37.0382 60.9058 37.0382C60.8976 37.0997 60.8883 37.1608 60.8782 37.2209C60.7696 37.8277 60.5868 38.4188 60.334 38.981C60.9228 39.1371 61.5721 39.158 62.0479 39.1425C62.4596 39.1294 62.7404 39.0906 62.7404 39.0906C64.7175 38.7905 66.056 38.1749 66.698 37.822C66.8222 37.7536 66.9302 37.6594 67.0147 37.5457L67.2145 42.2405C66.9439 42.0466 65.4037 42.272 64.1152 42.5387C63.3126 42.704 62.6085 42.8833 62.3694 42.9846C61.7428 43.2479 61.1342 44.0283 61.1342 44.0283C61.3597 44.499 62.0847 45.295 62.4581 45.6886C62.529 45.7635 62.6147 45.8227 62.7098 45.8625C62.805 45.9022 62.9074 45.9216 63.0105 45.9193L66.2597 45.8602L78.6579 49.3713L48.5992 0ZM44.772 23.3409L48.5992 17.0537L52.4172 23.3254C49.7233 23.2624 46.5954 23.3041 44.772 23.3409Z" fill="#EB1C24"/>
<path d="M48.5955 36.04C42.4187 36.04 39.0546 36.5548 38.0968 36.7284C38.0147 36.7432 37.9411 36.7879 37.8902 36.8539C37.8393 36.92 37.8148 37.0026 37.8214 37.0857C37.9285 38.3945 38.623 39.461 38.9712 39.9176C39.0932 40.077 39.2632 40.193 39.4561 40.2487C42.6166 41.1784 48.596 41.7592 48.596 41.7592C48.596 41.7592 54.5759 41.1775 57.7363 40.2487C57.9293 40.193 58.0992 40.077 58.2213 39.9176C58.5695 39.4585 59.2639 38.394 59.3711 37.0857C59.3777 37.0026 59.3532 36.92 59.3023 36.8539C59.2514 36.7879 59.1777 36.7432 59.0957 36.7284C58.1369 36.5548 54.7728 36.04 48.5955 36.04Z" fill="#EB1C24"/>
<path d="M61.007 46.7425C60.3654 46.427 59.2612 45.0236 58.7908 44.4007C58.7212 44.3079 58.6304 44.233 58.5259 44.1824C58.4215 44.1318 58.3064 44.1069 58.1904 44.1098C57.0241 44.1423 53.275 44.2354 48.5976 44.2354C43.9203 44.2354 40.1716 44.1443 39.0048 44.1128C38.8889 44.1099 38.7739 44.1348 38.6696 44.1854C38.5652 44.236 38.4745 44.3108 38.4049 44.4036C37.935 45.0265 36.8303 46.4299 36.1887 46.7455C35.358 47.1507 30.2907 46.5365 30.2907 46.5365C30.2044 47.0446 30.5633 47.2036 30.5633 47.2036C31.5574 47.8434 48.5976 47.6936 48.5976 47.6936C48.5976 47.6936 65.6383 47.8454 66.6324 47.2055C66.6324 47.2055 66.9913 47.0465 66.905 46.5385C66.905 46.5365 61.8377 47.1507 61.007 46.7425Z" fill="#EB1C24"/>
<path d="M48.5955 36.04C54.7728 36.04 58.1369 36.5548 59.0947 36.7284C59.1768 36.7432 59.2504 36.7879 59.3013 36.8539C59.3522 36.92 59.3768 37.0026 59.3701 37.0857C59.263 38.3945 58.5685 39.461 58.2203 39.9176C58.0983 40.077 57.9283 40.193 57.7354 40.2487C54.5749 41.1784 48.595 41.7592 48.595 41.7592C48.595 41.7592 42.6156 41.1775 39.4552 40.2487C39.2622 40.193 39.0923 40.077 38.9702 39.9176C38.623 39.459 37.9285 38.3926 37.8214 37.0837C37.8148 37.0006 37.8393 36.918 37.8902 36.852C37.9411 36.786 38.0147 36.7412 38.0968 36.7265C39.0546 36.5548 42.4187 36.04 48.5955 36.04Z" fill="#EB1C24"/>
<path d="M36.1887 46.7425C36.8303 46.427 37.9345 45.0236 38.4049 44.4007C38.4745 44.3079 38.5652 44.2331 38.6696 44.1825C38.7739 44.1319 38.8889 44.107 39.0048 44.1098C40.1716 44.1423 43.9208 44.2354 48.5976 44.2354C53.2745 44.2354 57.0241 44.1423 58.1904 44.1098C58.3064 44.1069 58.4215 44.1318 58.5259 44.1824C58.6304 44.233 58.7212 44.3079 58.7908 44.4007C59.2607 45.0236 60.3654 46.427 61.007 46.7425C61.8377 47.1507 66.905 46.5385 66.905 46.5385C66.9913 47.0465 66.6324 47.2055 66.6324 47.2055C65.6383 47.8454 48.5976 47.6956 48.5976 47.6956C48.5976 47.6956 31.5574 47.8454 30.5633 47.2055C30.5633 47.2055 30.2044 47.0465 30.2907 46.5385C30.2907 46.5365 35.358 47.1507 36.1887 46.7425Z" fill="#EB1C24"/>
</svg>
