<svg width="35" height="32" viewBox="0 0 35 32" fill="none" xmlns="http://www.w3.org/2000/svg">
<path d="M32.0521 2.85061C28.1246 -1.10254 21.6427 -0.906029 17.9033 3.20313C14.1636 -0.905884 7.68205 -1.10261 3.75451 2.85069C-0.151082 6.74355 -0.0180328 13.1539 4.00608 16.9112C1.94734 18.8792 3.12676 22.4155 5.92894 22.7603C5.76108 24.6807 7.39423 26.4418 9.32603 26.4092C9.44447 28.5233 11.5645 30.0367 13.5971 29.478C14.264 31.9967 17.4696 32.8574 19.3087 31.0036C20.3532 29.9644 21.1838 29.3092 21.2368 27.7353C22.9626 27.6872 24.4559 26.1723 24.4822 24.4459C26.2246 24.419 27.7427 22.8991 27.7696 21.1556C29.5772 21.1282 31.1445 19.4953 31.0603 17.6519L32.052 16.6594C35.8559 12.8523 35.8559 6.65766 32.0521 2.85061ZM5.50131 18.5003L6.43273 17.568C6.54729 17.4532 6.6834 17.3622 6.83323 17.3001C6.98306 17.2381 7.14366 17.2063 7.30579 17.2066C8.3901 17.1994 8.95609 18.5412 8.17872 19.3155L7.2473 20.2478C6.04164 21.3587 4.3912 19.7075 5.50131 18.5003ZM8.09842 22.9934C8.09842 22.6633 8.2269 22.353 8.46008 22.1196L9.39201 21.1869C9.50636 21.072 9.64234 20.9808 9.7921 20.9188C9.94186 20.8567 10.1024 20.825 10.2645 20.8255C11.358 20.8236 11.9123 22.1622 11.1375 22.9349L10.3157 23.7575C10.0644 24.0425 9.71936 24.2353 9.333 24.2291C8.6695 24.2427 8.08469 23.6576 8.09842 22.9934ZM11.8571 27.0477C11.3782 26.5878 11.3782 25.7602 11.8571 25.3003L12.6789 24.4777C13.1581 23.9083 13.9993 23.8342 14.5346 24.368C15.0159 24.8498 15.0159 25.6336 14.5346 26.1155L13.6031 27.0478C13.1218 27.5298 12.3385 27.5297 11.8571 27.0477ZM18.6987 28.5286L17.7673 29.4608C17.6529 29.5759 17.5169 29.6672 17.367 29.7293C17.2172 29.7914 17.0565 29.8232 16.8943 29.8228C16.7321 29.8232 16.5714 29.7914 16.4215 29.7293C16.2717 29.6672 16.1356 29.5759 16.0212 29.4608C15.5424 29.0008 15.5422 28.1732 16.0213 27.7133L16.9526 26.781C17.434 26.2992 18.2173 26.2992 18.6986 26.781C19.1777 27.241 19.1777 28.0686 18.6987 28.5286ZM28.52 18.6164C28.0604 19.0958 27.2336 19.0958 26.774 18.6164L21.9231 13.7613L20.3817 15.3041L25.2326 20.1592C25.7139 20.641 25.7139 21.4249 25.2326 21.9067C24.7512 22.3887 23.968 22.3885 23.4866 21.9067L18.718 17.1339L18.6357 17.0516L17.0943 18.5944L17.1765 18.6767L21.9452 23.4495C22.4266 23.9313 22.4266 24.7153 21.9452 25.1971C21.4638 25.6789 20.6805 25.6789 20.1991 25.1971L20.1982 25.198C19.3124 24.341 18.0746 24.0588 16.9566 24.3515C16.6007 22.8959 15.1387 21.7939 13.6686 21.826C13.5973 20.2593 12.2739 18.844 10.71 18.6749C10.9164 15.9868 7.96676 14.1357 5.63901 15.4598C2.39713 12.5615 2.19745 7.47345 5.2961 4.3934C8.37695 1.28826 13.4674 1.49401 16.362 4.74592L13.6672 7.44313L15.8266 9.6044C17.4853 11.2647 20.0413 11.4932 21.9471 10.2899L28.5203 16.8689C29.0014 17.3506 29.0014 18.1346 28.52 18.6164ZM30.5107 15.1166L30.1785 15.449C30.1405 15.4071 30.1015 15.3661 30.0616 15.3261L22.0328 7.29025L21.262 8.06161C20.1885 9.1361 18.4416 9.13625 17.3679 8.06161L16.7499 7.44313L19.797 4.3934C27.1987 -2.42511 37.3218 7.71324 30.5107 15.1166Z" fill="#888888"/>
</svg>
