<svg width="36" height="32" viewBox="0 0 36 32" fill="none" xmlns="http://www.w3.org/2000/svg">
<path d="M34.515 10.5188C34.163 10.1199 33.7301 9.80047 33.2452 9.58172C32.7603 9.36297 32.2344 9.24989 31.7025 9.25H22.9525V6.75C22.9525 5.0924 22.294 3.50269 21.1219 2.33058C19.9498 1.15848 18.3601 0.5 16.7025 0.5C16.4702 0.499834 16.2425 0.564361 16.0449 0.686346C15.8473 0.808331 15.6876 0.982951 15.5837 1.19063L9.68058 13H2.95245C2.28941 13 1.65353 13.2634 1.18469 13.7322C0.715846 14.2011 0.452454 14.837 0.452454 15.5V29.25C0.452454 29.913 0.715846 30.5489 1.18469 31.0178C1.65353 31.4866 2.28941 31.75 2.95245 31.75H29.8275C30.7411 31.7503 31.6233 31.4171 32.3086 30.8129C32.994 30.2088 33.4351 29.3752 33.5493 28.4688L35.4243 13.4688C35.4908 12.9407 35.4441 12.4045 35.2873 11.8958C35.1305 11.3872 34.8672 10.9178 34.515 10.5188ZM2.95245 15.5H9.20245V29.25H2.95245V15.5ZM32.9431 13.1562L31.0681 28.1562C31.03 28.4584 30.883 28.7363 30.6545 28.9376C30.4261 29.139 30.132 29.2501 29.8275 29.25H11.7025V14.5453L17.4384 3.07188C18.2885 3.24202 19.0535 3.70149 19.603 4.3721C20.1525 5.0427 20.4527 5.883 20.4525 6.75V10.5C20.4525 10.8315 20.5841 11.1495 20.8186 11.3839C21.053 11.6183 21.3709 11.75 21.7025 11.75H31.7025C31.8798 11.7499 32.0552 11.7876 32.2169 11.8606C32.3786 11.9335 32.5229 12.04 32.6402 12.173C32.7576 12.3061 32.8453 12.4625 32.8975 12.632C32.9497 12.8016 32.9653 12.9803 32.9431 13.1562Z" fill="#888888"/>
</svg>
