<svg width="40" height="40" viewBox="0 0 40 40" fill="none" xmlns="http://www.w3.org/2000/svg">
<path d="M20 33.75C17.2805 33.75 14.6221 32.9436 12.3609 31.4327C10.0997 29.9218 8.33737 27.7744 7.29666 25.2619C6.25596 22.7494 5.98366 19.9848 6.51421 17.3175C7.04476 14.6503 8.35432 12.2003 10.2773 10.2773C12.2003 8.35432 14.6503 7.04476 17.3175 6.51421C19.9848 5.98366 22.7494 6.25596 25.2619 7.29666C27.7744 8.33737 29.9218 10.0997 31.4327 12.3609C32.9436 14.6221 33.75 17.2805 33.75 20C33.75 20.3315 33.8817 20.6495 34.1161 20.8839C34.3505 21.1183 34.6685 21.25 35 21.25C35.3315 21.25 35.6495 21.1183 35.8839 20.8839C36.1183 20.6495 36.25 20.3315 36.25 20C36.25 16.7861 35.297 13.6443 33.5114 10.972C31.7258 8.29969 29.1879 6.21689 26.2186 4.98696C23.2493 3.75704 19.982 3.43524 16.8298 4.06225C13.6776 4.68926 10.7821 6.23692 8.50952 8.50952C6.23692 10.7821 4.68926 13.6776 4.06225 16.8298C3.43524 19.982 3.75704 23.2493 4.98696 26.2186C6.21689 29.1879 8.29969 31.7258 10.972 33.5114C13.6443 35.297 16.7861 36.25 20 36.25C20.3315 36.25 20.6495 36.1183 20.8839 35.8839C21.1183 35.6495 21.25 35.3315 21.25 35C21.25 34.6685 21.1183 34.3505 20.8839 34.1161C20.6495 33.8817 20.3315 33.75 20 33.75Z" fill="#888888"/>
<path d="M20.5 29C20.8074 29 21.1023 28.8855 21.3197 28.6818C21.5371 28.4781 21.6592 28.2018 21.6592 27.9137V27.187C23.5776 26.7046 25 25.0774 25 23.1307C25.0009 22.8312 24.9671 22.5326 24.8991 22.24C24.6784 21.2996 24.1223 20.4577 23.3227 19.8531C22.523 19.2485 21.5275 18.9171 20.5 18.9137C19.4799 18.9137 18.5815 18.2358 18.3671 17.306C18.298 17.0075 18.3012 16.6982 18.3763 16.401C18.4514 16.1038 18.5965 15.8261 18.8011 15.5883C19.0056 15.3504 19.2643 15.1585 19.5583 15.0266C19.8523 14.8947 20.174 14.8262 20.5 14.826C20.8252 14.8264 21.1462 14.8948 21.4396 15.0264C21.7329 15.1579 21.9913 15.3492 22.1957 15.5862C22.4001 15.8233 22.5454 16.1001 22.621 16.3965C22.6967 16.6929 22.7007 17.0014 22.6329 17.2995C22.5676 17.5811 22.6243 17.8755 22.7906 18.1179C22.9569 18.3603 23.2192 18.5309 23.5197 18.5922C23.8202 18.6534 24.1344 18.6002 24.3931 18.4444C24.6518 18.2885 24.8338 18.0428 24.8991 17.7611C24.9675 17.4678 25 17.1756 25 16.8693C25 14.9215 23.5776 13.2954 21.6592 12.8119V12.0863C21.6592 11.7982 21.5371 11.5219 21.3197 11.3182C21.1023 11.1144 20.8074 11 20.5 11C20.1926 11 19.8977 11.1144 19.6803 11.3182C19.4629 11.5219 19.3408 11.7982 19.3408 12.0863V12.8119C17.4235 13.2943 16 14.9215 16 16.8693C16 17.1734 16.0336 17.4624 16.0997 17.76C16.3211 18.7003 16.8774 19.542 17.6772 20.1465C18.4769 20.7511 19.4725 21.0825 20.5 21.0863C21.0778 21.0886 21.6313 21.3047 22.0399 21.6876C22.4485 22.0705 22.6792 22.5892 22.6816 23.1307C22.6807 23.6726 22.4505 24.192 22.0415 24.575C21.6326 24.958 21.0782 25.1735 20.5 25.174C20.174 25.1738 19.8523 25.1053 19.5583 24.9734C19.2643 24.8415 19.0056 24.6496 18.8011 24.4117C18.5965 24.1739 18.4514 23.8962 18.3763 23.599C18.3012 23.3018 18.298 22.9925 18.3671 22.694C18.3987 22.5544 18.4007 22.4104 18.3729 22.2701C18.3451 22.1298 18.288 21.996 18.205 21.8763C18.122 21.7567 18.0147 21.6535 17.8892 21.5728C17.7636 21.492 17.6223 21.4352 17.4733 21.4057C17.1725 21.3476 16.8594 21.4031 16.602 21.5602C16.3446 21.7172 16.1637 21.963 16.0985 22.2443C16.0336 22.5376 16 22.8276 16 23.1307C16 25.0774 17.4235 26.7046 19.3408 27.187V27.9137C19.3408 28.2018 19.4629 28.4781 19.6803 28.6818C19.8977 28.8855 20.1926 29 20.5 29Z" fill="#888888"/>
<path d="M30.0449 26.4294C30.3313 26.4294 30.606 26.5343 30.8085 26.7211L33.1652 28.8933L36.2359 26.0617H35.1936C34.1978 26.0627 33.6977 24.9512 34.403 24.3018C34.6126 24.1086 34.8966 24 35.1936 24H38.8821C39.4988 24 40 24.4611 40 25.0309V28.4322C40 28.7061 39.8823 28.968 39.6727 29.1612C38.9674 29.8106 37.7632 29.3505 37.7632 28.4322V27.47L33.9289 31.0068C33.8286 31.0994 33.7094 31.1729 33.5783 31.223C33.4472 31.2731 33.3066 31.2989 33.1647 31.2989C33.0228 31.2989 32.8822 31.2731 32.7511 31.223C32.62 31.1729 32.5009 31.0994 32.4005 31.0068L30.046 28.8336L25.8445 32.708C25.7442 32.8005 25.6251 32.8739 25.4941 32.924C25.363 32.9741 25.2225 33 25.0807 33C24.9388 33 24.7983 32.9743 24.6672 32.9243C24.5362 32.8743 24.417 32.8009 24.3167 32.7085C24.2163 32.616 24.1367 32.5062 24.0824 32.3854C24.028 32.2645 24.0001 32.135 24 32.0042C23.9999 31.8733 24.0278 31.7438 24.0821 31.6229C24.1363 31.502 24.2159 31.3922 24.3161 31.2996L29.2813 26.7211C29.4838 26.5343 29.7585 26.4294 30.0449 26.4294Z" fill="#888888"/>
</svg>
