<svg width="38" height="29" viewBox="0 0 38 29" fill="none" xmlns="http://www.w3.org/2000/svg">
<path d="M37.1079 16.5C36.9766 16.5985 36.8271 16.6701 36.6681 16.7109C36.5091 16.7516 36.3436 16.7606 36.1811 16.7374C36.0186 16.7142 35.8623 16.6592 35.721 16.5756C35.5798 16.492 35.4564 16.3813 35.3579 16.25C34.6045 15.2373 33.6238 14.4156 32.4948 13.8511C31.3659 13.2866 30.1201 12.9951 28.8579 13C28.6121 13 28.3717 12.9275 28.1669 12.7916C27.9621 12.6557 27.8019 12.4624 27.7063 12.2359C27.6414 12.0821 27.608 11.9169 27.608 11.75C27.608 11.5831 27.6414 11.4178 27.7063 11.2641C27.8019 11.0376 27.9621 10.8443 28.1669 10.7084C28.3717 10.5725 28.6121 10.5 28.8579 10.5C29.5593 10.4999 30.2465 10.3032 30.8417 9.93209C31.4368 9.561 31.916 9.03044 32.2247 8.40068C32.5334 7.77093 32.6594 7.06721 32.5882 6.36947C32.517 5.67172 32.2516 5.00792 31.8221 4.45347C31.3926 3.89901 30.8162 3.47612 30.1584 3.23283C29.5005 2.98954 28.7877 2.93561 28.1008 3.07716C27.4138 3.2187 26.7804 3.55005 26.2723 4.03357C25.7643 4.51709 25.402 5.1334 25.2266 5.81249C25.1856 5.97152 25.1136 6.1209 25.0149 6.25211C24.9161 6.38332 24.7925 6.4938 24.651 6.57723C24.5095 6.66066 24.353 6.7154 24.1904 6.73834C24.0278 6.76128 23.8622 6.75197 23.7032 6.71093C23.5442 6.66989 23.3948 6.59794 23.2636 6.49917C23.1324 6.4004 23.0219 6.27675 22.9385 6.13529C22.855 5.99382 22.8003 5.83731 22.7774 5.67469C22.7544 5.51206 22.7637 5.34652 22.8048 5.18749C23.0481 4.2458 23.5079 3.3739 24.1476 2.64117C24.7872 1.90844 25.589 1.33511 26.4892 0.966791C27.3894 0.598475 28.3632 0.445341 29.333 0.519573C30.3028 0.593805 31.2418 0.893355 32.0755 1.39439C32.9092 1.89542 33.6144 2.58411 34.135 3.40565C34.6557 4.22719 34.9774 5.15891 35.0747 6.12668C35.1719 7.09444 35.0419 8.07154 34.695 8.98023C34.3481 9.88891 33.794 10.7041 33.0766 11.3609C34.7763 12.0969 36.2539 13.2647 37.3626 14.7484C37.4611 14.8801 37.5326 15.0299 37.5731 15.1892C37.6136 15.3486 37.6223 15.5143 37.5986 15.6771C37.575 15.8398 37.5195 15.9962 37.4352 16.1374C37.351 16.2786 37.2398 16.4018 37.1079 16.5ZM28.6891 26.125C28.7796 26.2673 28.8403 26.4264 28.8677 26.5927C28.895 26.7591 28.8885 26.9292 28.8484 27.093C28.8082 27.2567 28.7354 27.4107 28.6343 27.5455C28.5331 27.6804 28.4058 27.7934 28.2598 27.8778C28.1138 27.9622 27.9523 28.0161 27.785 28.0365C27.6176 28.0568 27.4479 28.0431 27.286 27.9961C27.1241 27.9491 26.9733 27.8699 26.8428 27.7631C26.7123 27.6564 26.6048 27.5244 26.5266 27.375C25.7392 26.0417 24.6178 24.9367 23.2729 24.1691C21.9281 23.4014 20.4064 22.9977 18.8579 22.9977C17.3094 22.9977 15.7877 23.4014 14.4429 24.1691C13.098 24.9367 11.9766 26.0417 11.1891 27.375C11.111 27.5244 11.0034 27.6564 10.873 27.7631C10.7425 27.8699 10.5917 27.9491 10.4298 27.9961C10.2679 28.0431 10.0982 28.0568 9.93081 28.0365C9.76345 28.0161 9.60194 27.9622 9.45598 27.8778C9.31003 27.7934 9.18264 27.6804 9.0815 27.5455C8.98036 27.4107 8.90754 27.2567 8.86743 27.093C8.82732 26.9292 8.82075 26.7591 8.84811 26.5927C8.87547 26.4264 8.9362 26.2673 9.02664 26.125C10.2385 24.0428 12.0863 22.4042 14.2985 21.45C13.0537 20.4969 12.1389 19.1777 11.6826 17.6779C11.2263 16.178 11.2515 14.5728 11.7546 13.088C12.2578 11.6031 13.2136 10.3133 14.4877 9.3998C15.7618 8.48628 17.2901 7.99499 18.8579 7.99499C20.4257 7.99499 21.954 8.48628 23.2281 9.3998C24.5022 10.3133 25.458 11.6031 25.9612 13.088C26.4643 14.5728 26.4895 16.178 26.0332 17.6779C25.5769 19.1777 24.6621 20.4969 23.4173 21.45C25.6295 22.4042 27.4773 24.0428 28.6891 26.125ZM18.8579 20.5C19.8468 20.5 20.8135 20.2067 21.6357 19.6573C22.458 19.1079 23.0989 18.327 23.4773 17.4134C23.8557 16.4998 23.9547 15.4944 23.7618 14.5245C23.5689 13.5546 23.0927 12.6637 22.3934 11.9645C21.6942 11.2652 20.8033 10.789 19.8333 10.5961C18.8634 10.4031 17.8581 10.5022 16.9445 10.8806C16.0308 11.259 15.25 11.8999 14.7005 12.7221C14.1511 13.5444 13.8579 14.5111 13.8579 15.5C13.8579 16.8261 14.3847 18.0978 15.3224 19.0355C16.26 19.9732 17.5318 20.5 18.8579 20.5ZM10.1079 11.75C10.1079 11.4185 9.9762 11.1005 9.74178 10.8661C9.50736 10.6317 9.18942 10.5 8.85789 10.5C8.15653 10.4999 7.46924 10.3032 6.8741 9.93209C6.27895 9.561 5.7998 9.03044 5.49107 8.40068C5.18234 7.77093 5.05641 7.06721 5.12758 6.36947C5.19875 5.67172 5.46417 5.00792 5.89369 4.45347C6.32321 3.89901 6.89961 3.47612 7.55743 3.23283C8.21524 2.98954 8.9281 2.93561 9.61503 3.07716C10.302 3.2187 10.9354 3.55005 11.4435 4.03357C11.9515 4.51709 12.3138 5.1334 12.4891 5.81249C12.572 6.13365 12.7791 6.40874 13.0648 6.57723C13.3505 6.74572 13.6914 6.79381 14.0126 6.71093C14.3337 6.62805 14.6088 6.42099 14.7773 6.13529C14.9458 5.84959 14.9939 5.50865 14.911 5.18749C14.6677 4.2458 14.2079 3.3739 13.5682 2.64117C12.9286 1.90844 12.1268 1.33511 11.2266 0.966791C10.3264 0.598475 9.35263 0.445341 8.38283 0.519573C7.41303 0.593805 6.47394 0.893355 5.64028 1.39439C4.80662 1.89542 4.1014 2.58411 3.58074 3.40565C3.06008 4.22719 2.73834 5.15891 2.64113 6.12668C2.54392 7.09444 2.67391 8.07154 3.02078 8.98023C3.36764 9.88891 3.92179 10.7041 4.63915 11.3609C2.94115 12.0976 1.46526 13.2653 0.357896 14.7484C0.158776 15.0136 0.073169 15.3471 0.119907 15.6754C0.166644 16.0038 0.341898 16.3001 0.607115 16.4992C0.872331 16.6983 1.20579 16.7839 1.53412 16.7372C1.86246 16.6905 2.15878 16.5152 2.3579 16.25C3.11131 15.2373 4.09198 14.4156 5.22095 13.8511C6.34993 13.2866 7.59567 12.9951 8.85789 13C9.18942 13 9.50736 12.8683 9.74178 12.6339C9.9762 12.3995 10.1079 12.0815 10.1079 11.75Z" fill="#888888"/>
</svg>
