<svg width="36" height="31" viewBox="0 0 36 31" fill="none" xmlns="http://www.w3.org/2000/svg">
<path d="M17.0475 15.25C17.0475 15.5815 16.9158 15.8995 16.6814 16.1339C16.4469 16.3683 16.129 16.5 15.7975 16.5H8.29749C7.96596 16.5 7.64802 16.3683 7.4136 16.1339C7.17918 15.8995 7.04749 15.5815 7.04749 15.25C7.04749 14.9185 7.17918 14.6005 7.4136 14.3661C7.64802 14.1317 7.96596 14 8.29749 14H15.7975C16.129 14 16.4469 14.1317 16.6814 14.3661C16.9158 14.6005 17.0475 14.9185 17.0475 15.25ZM15.7975 9H8.29749C7.96596 9 7.64802 9.1317 7.4136 9.36612C7.17918 9.60054 7.04749 9.91848 7.04749 10.25C7.04749 10.5815 7.17918 10.8995 7.4136 11.1339C7.64802 11.3683 7.96596 11.5 8.29749 11.5H15.7975C16.129 11.5 16.4469 11.3683 16.6814 11.1339C16.9158 10.8995 17.0475 10.5815 17.0475 10.25C17.0475 9.91848 16.9158 9.60054 16.6814 9.36612C16.4469 9.1317 16.129 9 15.7975 9ZM33.2975 19.2297V29C33.2995 29.2204 33.2432 29.4373 33.1343 29.6289C33.0254 29.8205 32.8677 29.9799 32.6774 30.091C32.487 30.202 32.2707 30.2608 32.0503 30.2612C31.8299 30.2617 31.6133 30.2039 31.4225 30.0937L27.6725 27.9469L23.9225 30.0937C23.7316 30.2039 23.515 30.2617 23.2947 30.2612C23.0743 30.2608 22.858 30.202 22.6676 30.091C22.4772 29.9799 22.3196 29.8205 22.2107 29.6289C22.1018 29.4373 22.0455 29.2204 22.0475 29V25.25H3.29749C2.63444 25.25 1.99856 24.9866 1.52972 24.5178C1.06088 24.0489 0.797485 23.413 0.797485 22.75V2.75C0.797485 2.08696 1.06088 1.45107 1.52972 0.982233C1.99856 0.513392 2.63444 0.25 3.29749 0.25H30.7975C31.4605 0.25 32.0964 0.513392 32.5653 0.982233C33.0341 1.45107 33.2975 2.08696 33.2975 2.75V7.52031C34.0877 8.27701 34.7165 9.18582 35.1461 10.192C35.5757 11.1982 35.7971 12.2809 35.7971 13.375C35.7971 14.4691 35.5757 15.5518 35.1461 16.558C34.7165 17.5642 34.0877 18.473 33.2975 19.2297ZM22.0475 22.75V19.2297C20.6853 17.916 19.8244 16.168 19.6134 14.2874C19.4024 12.4067 19.8544 10.5114 20.8916 8.92849C21.9287 7.34556 23.4859 6.17431 25.2943 5.61685C27.1028 5.05939 29.0491 5.15069 30.7975 5.875V2.75H3.29749V22.75H22.0475ZM30.7975 20.875C29.8075 21.2886 28.7454 21.5016 27.6725 21.5016C26.5996 21.5016 25.5374 21.2886 24.5475 20.875V26.8469L27.0475 25.4156C27.2364 25.3076 27.4502 25.2508 27.6678 25.2508C27.8854 25.2508 28.0992 25.3076 28.2881 25.4156L30.7881 26.8469L30.7975 20.875ZM33.2975 13.375C33.2975 12.2625 32.9676 11.1749 32.3495 10.2499C31.7314 9.32489 30.8529 8.60392 29.8251 8.17818C28.7972 7.75243 27.6662 7.64104 26.5751 7.85808C25.484 8.07512 24.4817 8.61085 23.695 9.39752C22.9083 10.1842 22.3726 11.1865 22.1556 12.2776C21.9385 13.3688 22.0499 14.4998 22.4757 15.5276C22.9014 16.5554 23.6224 17.4339 24.5474 18.052C25.4724 18.6701 26.56 19 27.6725 19C28.4112 19 29.1426 18.8545 29.8251 18.5718C30.5075 18.2891 31.1276 17.8748 31.65 17.3525C32.1723 16.8301 32.5866 16.21 32.8693 15.5276C33.152 14.8451 33.2975 14.1137 33.2975 13.375Z" fill="#888888"/>
</svg>
