<svg width="24" height="24" viewBox="0 0 24 24" fill="none" xmlns="http://www.w3.org/2000/svg">
<path d="M14.4693 20.0306L6.96932 12.5306C6.89959 12.461 6.84427 12.3783 6.80653 12.2872C6.76879 12.1962 6.74936 12.0986 6.74936 12C6.74936 11.9014 6.76879 11.8038 6.80653 11.7128C6.84427 11.6218 6.89959 11.539 6.96932 11.4694L14.4693 3.96938C14.6101 3.82865 14.8009 3.74959 14.9999 3.74959C15.199 3.74959 15.3898 3.82865 15.5306 3.96938C15.6713 4.11011 15.7504 4.30098 15.7504 4.50001C15.7504 4.69903 15.6713 4.8899 15.5306 5.03063L8.56026 12L15.5306 18.9694C15.6003 19.0391 15.6555 19.1218 15.6932 19.2128C15.731 19.3039 15.7504 19.4015 15.7504 19.5C15.7504 19.5986 15.731 19.6961 15.6932 19.7872C15.6555 19.8782 15.6003 19.9609 15.5306 20.0306C15.4609 20.1003 15.3782 20.1556 15.2871 20.1933C15.1961 20.231 15.0985 20.2504 14.9999 20.2504C14.9014 20.2504 14.8038 20.231 14.7128 20.1933C14.6217 20.1556 14.539 20.1003 14.4693 20.0306Z" fill="#888888"/>
</svg>
