<svg width="24" height="24" viewBox="0 0 24 24" fill="none" xmlns="http://www.w3.org/2000/svg">
<path d="M9.53061 3.96937L17.0306 11.4694C17.1003 11.539 17.1557 11.6217 17.1934 11.7128C17.2312 11.8038 17.2506 11.9014 17.2506 12C17.2506 12.0986 17.2312 12.1962 17.1934 12.2872C17.1557 12.3782 17.1003 12.461 17.0306 12.5306L9.53061 20.0306C9.38988 20.1714 9.19901 20.2504 8.99999 20.2504C8.80097 20.2504 8.61009 20.1714 8.46936 20.0306C8.32863 19.8899 8.24957 19.699 8.24957 19.5C8.24957 19.301 8.32863 19.1101 8.46936 18.9694L15.4397 12L8.46936 5.03062C8.39968 4.96094 8.34441 4.87821 8.30669 4.78717C8.26898 4.69612 8.24957 4.59854 8.24957 4.49999C8.24957 4.40145 8.26898 4.30387 8.30669 4.21282C8.34441 4.12178 8.39968 4.03905 8.46936 3.96937C8.53905 3.89969 8.62177 3.84441 8.71282 3.8067C8.80386 3.76899 8.90144 3.74958 8.99999 3.74958C9.09854 3.74958 9.19612 3.76899 9.28716 3.8067C9.37821 3.84441 9.46093 3.89969 9.53061 3.96937Z" fill="#888888"/>
</svg>
