<svg width="116" height="21" viewBox="0 0 116 21" fill="none" xmlns="http://www.w3.org/2000/svg">
<g clip-path="url(#clip0_0_370)">
<path d="M9.09981 2.88975C9.50165 2.19989 10.4983 2.19989 10.9001 2.88975L13.2292 6.88869L17.7522 7.86812C18.5325 8.03708 18.8405 8.98491 18.3086 9.58025L15.2251 13.0312L15.6912 17.6354C15.7716 18.4297 14.9654 19.0155 14.2348 18.6936L9.99998 16.8274L5.76511 18.6936C5.03455 19.0155 4.22827 18.4297 4.3087 17.6354L4.77487 13.0312L1.69141 9.58025C1.15948 8.98491 1.46745 8.03708 2.24771 7.86812L6.77068 6.88869L9.09981 2.88975Z" fill="#FFCC02"/>
</g>
<g clip-path="url(#clip1_0_370)">
<path d="M33.0998 2.88975C33.5016 2.19989 34.4983 2.19989 34.9001 2.88975L37.2292 6.88869L41.7522 7.86812C42.5325 8.03708 42.8405 8.98491 42.3086 9.58025L39.2251 13.0312L39.6912 17.6354C39.7716 18.4297 38.9654 19.0155 38.2348 18.6936L34 16.8274L29.7651 18.6936C29.0346 19.0155 28.2283 18.4297 28.3087 17.6354L28.7749 13.0312L25.6914 9.58025C25.1595 8.98491 25.4675 8.03708 26.2477 7.86812L30.7707 6.88869L33.0998 2.88975Z" fill="#FFCC02"/>
</g>
<g clip-path="url(#clip2_0_370)">
<path d="M57.0998 2.88975C57.5016 2.19989 58.4983 2.19989 58.9001 2.88975L61.2292 6.88869L65.7522 7.86812C66.5325 8.03708 66.8405 8.98491 66.3086 9.58025L63.2251 13.0312L63.6912 17.6354C63.7716 18.4297 62.9654 19.0155 62.2348 18.6936L58 16.8274L53.7651 18.6936C53.0346 19.0155 52.2283 18.4297 52.3087 17.6354L52.7749 13.0312L49.6914 9.58025C49.1595 8.98491 49.4675 8.03708 50.2477 7.86812L54.7707 6.88869L57.0998 2.88975Z" fill="#FFCC02"/>
</g>
<g clip-path="url(#clip3_0_370)">
<path d="M81.0998 2.88975C81.5016 2.19989 82.4983 2.19989 82.9001 2.88975L85.2292 6.88869L89.7522 7.86812C90.5325 8.03708 90.8405 8.98491 90.3086 9.58025L87.2251 13.0312L87.6912 17.6354C87.7716 18.4297 86.9654 19.0155 86.2348 18.6936L82 16.8274L77.7651 18.6936C77.0346 19.0155 76.2283 18.4297 76.3087 17.6354L76.7749 13.0312L73.6914 9.58025C73.1595 8.98491 73.4675 8.03708 74.2477 7.86812L78.7707 6.88869L81.0998 2.88975Z" fill="#FFCC02"/>
</g>
<g clip-path="url(#clip4_0_370)">
<rect width="20" height="20" transform="translate(96 0.5)" fill="white"/>
<path d="M105.1 2.88975C105.502 2.19989 106.498 2.19989 106.9 2.88975L109.229 6.88869L113.752 7.86812C114.532 8.03708 114.84 8.98491 114.309 9.58025L111.225 13.0312L111.691 17.6354C111.772 18.4297 110.965 19.0155 110.235 18.6936L106 16.8274L101.765 18.6936C101.035 19.0155 100.228 18.4297 100.309 17.6354L100.775 13.0312L97.6914 9.58025C97.1595 8.98491 97.4675 8.03708 98.2477 7.86812L102.771 6.88869L105.1 2.88975Z" fill="#E6E6E6"/>
<path d="M101.765 18.6935L106 16.8274V2.37231C105.65 2.37231 105.301 2.54478 105.1 2.88971L102.771 6.88865L98.2478 7.86808C97.4676 8.03704 97.1596 8.98488 97.6915 9.58021L100.775 13.0311L100.309 17.6354C100.228 18.4296 101.035 19.0155 101.765 18.6935Z" fill="#FFCC02"/>
</g>
<defs>
<clipPath id="clip0_0_370">
<rect width="20" height="20" fill="white" transform="translate(0 0.5)"/>
</clipPath>
<clipPath id="clip1_0_370">
<rect width="20" height="20" fill="white" transform="translate(24 0.5)"/>
</clipPath>
<clipPath id="clip2_0_370">
<rect width="20" height="20" fill="white" transform="translate(48 0.5)"/>
</clipPath>
<clipPath id="clip3_0_370">
<rect width="20" height="20" fill="white" transform="translate(72 0.5)"/>
</clipPath>
<clipPath id="clip4_0_370">
<rect width="20" height="20" fill="white" transform="translate(96 0.5)"/>
</clipPath>
</defs>
</svg>
