<svg width="34" height="34" viewBox="0 0 34 34" fill="none" xmlns="http://www.w3.org/2000/svg">
<path d="M18.3451 8.25001V14.9766L24.0357 12.1313C24.3322 11.9829 24.6755 11.9584 24.9901 12.0632C25.3046 12.1679 25.5647 12.3933 25.7131 12.6899C25.8614 12.9864 25.8859 13.3296 25.7812 13.6442C25.6764 13.9588 25.451 14.2188 25.1545 14.3672L17.6545 18.1172C17.4639 18.2125 17.2522 18.2576 17.0394 18.2481C16.8265 18.2386 16.6197 18.1749 16.4384 18.0629C16.2571 17.951 16.1075 17.7946 16.0036 17.6086C15.8998 17.4225 15.8452 17.2131 15.8451 17V8.25001C15.8451 7.91849 15.9768 7.60054 16.2112 7.36612C16.4456 7.1317 16.7636 7.00001 17.0951 7.00001C17.4266 7.00001 17.7446 7.1317 17.979 7.36612C18.2134 7.60054 18.3451 7.91849 18.3451 8.25001ZM17.0951 30.75C14.3756 30.75 11.7172 29.9436 9.45601 28.4327C7.19483 26.9218 5.43246 24.7744 4.39176 22.2619C3.35105 19.7494 3.07876 16.9848 3.6093 14.3175C4.13985 11.6503 5.44941 9.20026 7.37238 7.27729C9.29535 5.35432 11.7454 4.04476 14.4126 3.51421C17.0798 2.98366 19.8445 3.25596 22.357 4.29666C24.8695 5.33737 27.0169 7.09974 28.5278 9.36092C30.0387 11.6221 30.8451 14.2805 30.8451 17C30.8451 17.3315 30.9768 17.6495 31.2112 17.8839C31.4456 18.1183 31.7636 18.25 32.0951 18.25C32.4266 18.25 32.7446 18.1183 32.979 17.8839C33.2134 17.6495 33.3451 17.3315 33.3451 17C33.3451 13.7861 32.3921 10.6443 30.6065 7.97199C28.8209 5.29969 26.283 3.21689 23.3137 1.98696C20.3444 0.757041 17.0771 0.435237 13.9249 1.06225C10.7727 1.68926 7.87722 3.23692 5.60461 5.50952C3.33201 7.78213 1.78435 10.6776 1.15734 13.8298C0.530329 16.982 0.852134 20.2493 2.08206 23.2186C3.31198 26.1879 5.39478 28.7258 8.06708 30.5114C10.7394 32.297 13.8812 33.25 17.0951 33.25C17.4266 33.25 17.7446 33.1183 17.979 32.8839C18.2134 32.6495 18.3451 32.3315 18.3451 32C18.3451 31.6685 18.2134 31.3505 17.979 31.1161C17.7446 30.8817 17.4266 30.75 17.0951 30.75ZM33.3029 31.6781C33.3487 31.8379 33.3622 32.0052 33.3426 32.1702C33.323 32.3352 33.2706 32.4947 33.1887 32.6393C33.1067 32.7838 32.9967 32.9106 32.8651 33.0121C32.7336 33.1137 32.5831 33.188 32.4225 33.2307C32.2619 33.2734 32.0944 33.2836 31.9297 33.2608C31.7651 33.238 31.6067 33.1826 31.4637 33.0978C31.3208 33.0131 31.1962 32.9006 31.0972 32.7671C30.9982 32.6336 30.9269 32.4817 30.8873 32.3203C30.4451 30.6594 28.8857 29.5 27.0951 29.5C25.3045 29.5 23.7451 30.6594 23.3029 32.3203C23.2323 32.5868 23.0755 32.8224 22.8571 32.9905C22.6387 33.1587 22.3708 33.2499 22.0951 33.25C21.9864 33.2497 21.8783 33.2356 21.7732 33.2078C21.4529 33.1224 21.1796 32.9133 21.0135 32.6265C20.8473 32.3396 20.8019 31.9985 20.8873 31.6781C21.2927 30.1726 22.2463 28.873 23.5607 28.0344C22.8609 27.3353 22.3842 26.4444 22.1908 25.4744C21.9974 24.5043 22.0961 23.4987 22.4744 22.5848C22.8527 21.6708 23.4935 20.8896 24.3159 20.3399C25.1383 19.7903 26.1052 19.4969 27.0943 19.4969C28.0835 19.4969 29.0504 19.7903 29.8727 20.3399C30.6951 20.8896 31.336 21.6708 31.7142 22.5848C32.0925 23.4987 32.1912 24.5043 31.9978 25.4744C31.8045 26.4444 31.3277 27.3353 30.6279 28.0344C31.9429 28.8727 32.8971 30.1723 33.3029 31.6781ZM24.5951 24.5C24.5951 24.9945 24.7417 25.4778 25.0164 25.8889C25.2911 26.3001 25.6816 26.6205 26.1384 26.8097C26.5952 26.9989 27.0979 27.0484 27.5828 26.952C28.0678 26.8555 28.5132 26.6174 28.8629 26.2678C29.2125 25.9181 29.4506 25.4727 29.5471 24.9877C29.6435 24.5028 29.594 24.0001 29.4048 23.5433C29.2156 23.0865 28.8951 22.696 28.484 22.4213C28.0729 22.1466 27.5896 22 27.0951 22C26.4321 22 25.7962 22.2634 25.3273 22.7322C24.8585 23.2011 24.5951 23.837 24.5951 24.5Z" fill="#888888"/>
</svg>
