<svg width="34" height="34" viewBox="0 0 34 34" fill="none" xmlns="http://www.w3.org/2000/svg">
<path d="M17.1426 0.75C13.9286 0.75 10.7869 1.70305 8.11457 3.48862C5.44227 5.27419 3.35947 7.81209 2.12954 10.7814C0.899619 13.7507 0.577815 17.018 1.20482 20.1702C1.83183 23.3224 3.3795 26.2179 5.6521 28.4905C7.9247 30.7631 10.8202 32.3107 13.9724 32.9378C17.1246 33.5648 20.3919 33.243 23.3612 32.013C26.3305 30.7831 28.8684 28.7003 30.654 26.028C32.4395 23.3557 33.3926 20.2139 33.3926 17C33.388 12.6916 31.6745 8.56102 28.628 5.51454C25.5816 2.46806 21.451 0.75455 17.1426 0.75ZM17.1426 30.75C14.4231 30.75 11.7647 29.9436 9.50349 28.4327C7.24232 26.9218 5.47995 24.7744 4.43924 22.2619C3.39854 19.7494 3.12624 16.9847 3.65679 14.3175C4.18733 11.6503 5.4969 9.20025 7.41987 7.27728C9.34284 5.35431 11.7929 4.04475 14.4601 3.5142C17.1273 2.98366 19.892 3.25595 22.4045 4.29666C24.917 5.33736 27.0644 7.09973 28.5753 9.36091C30.0862 11.6221 30.8926 14.2805 30.8926 17C30.8885 20.6455 29.4385 24.1404 26.8607 26.7182C24.283 29.2959 20.788 30.7459 17.1426 30.75ZM27.1426 17C27.1426 17.3315 27.0109 17.6495 26.7765 17.8839C26.542 18.1183 26.2241 18.25 25.8926 18.25H17.1426C16.8111 18.25 16.4931 18.1183 16.2587 17.8839C16.0243 17.6495 15.8926 17.3315 15.8926 17V8.25C15.8926 7.91848 16.0243 7.60054 16.2587 7.36612C16.4931 7.1317 16.8111 7 17.1426 7C17.4741 7 17.792 7.1317 18.0265 7.36612C18.2609 7.60054 18.3926 7.91848 18.3926 8.25V15.75H25.8926C26.2241 15.75 26.542 15.8817 26.7765 16.1161C27.0109 16.3505 27.1426 16.6685 27.1426 17Z" fill="#888888"/>
</svg>
