<svg width="24" height="24" viewBox="0 0 24 24" fill="none" xmlns="http://www.w3.org/2000/svg">
<path fill-rule="evenodd" clip-rule="evenodd" d="M1.46543e-06 23.5382C0.00227839 23.6936 0.103437 23.8636 0.238112 23.9383C0.299788 23.9725 0.403037 24.0002 0.467554 24C0.532071 23.9998 1.72505 23.5913 3.11862 23.0924L5.65238 22.1852L5.88698 22.3241C6.84403 22.8908 8.38141 23.501 9.40609 23.7209C13.4504 24.5886 17.5792 23.3897 20.4808 20.505C22.3415 18.6551 23.527 16.256 23.935 13.5144C24.031 12.8696 24.0181 11.0234 23.9129 10.3465C23.6111 8.40448 22.9831 6.77328 21.9525 5.2544C20.0075 2.38783 17.0223 0.551221 13.5117 0.0613207C12.9258 -0.0204402 11.0946 -0.0204402 10.5087 0.0613207C7.78259 0.441754 5.40619 1.60986 3.51974 3.49674C1.63133 5.38558 0.481545 7.73221 0.0830534 10.5108C-0.00941999 11.1556 0.00684491 12.9589 0.111414 13.6552C0.219132 14.3725 0.499498 15.4915 0.722868 16.0957C0.898261 16.5701 1.4607 17.751 1.74287 18.2374L1.89627 18.5018L0.947306 20.9632C0.425375 22.3169 -0.000912033 23.4757 1.46543e-06 23.5382ZM16.0377 17.8873C16.5048 17.7262 16.8536 17.5112 17.1943 17.1744C17.5466 16.8262 17.7834 16.4434 17.9457 15.9598C18.0609 15.6166 18.0687 15.5419 18.0547 14.9208C18.0414 14.3301 18.0286 14.2394 17.9458 14.1475C17.8942 14.0903 17.3452 13.7893 16.7258 13.4787C15.6699 12.9491 15.5792 12.9125 15.2713 12.8924C14.7424 12.8579 14.1773 13.1042 13.6097 13.6165L13.3408 13.8593L12.9452 13.6635C11.7765 13.085 10.9321 12.2508 10.3597 11.1091L10.1395 10.67L10.4498 10.2855C10.6205 10.074 10.8346 9.74256 10.9255 9.54891C11.0733 9.23413 11.0909 9.15458 11.0924 8.79791L11.094 8.39899L10.5223 7.26626C10.1607 6.54978 9.90434 6.09707 9.82455 6.0343C9.70961 5.94386 9.63939 5.93506 9.0329 5.93506C8.5612 5.93506 8.29317 5.95688 8.11253 6.00998C7.11789 6.30238 6.31141 7.14673 6.04989 8.16947C5.81204 9.09969 6.00955 10.0331 6.75393 11.4965C7.71319 13.3824 8.86541 14.8264 10.2038 15.82C11.6201 16.8716 13.2753 17.7299 14.3563 17.9735C14.8201 18.078 15.6009 18.038 16.0377 17.8873Z" fill="#888888"/>
</svg>
