<svg width="227" height="164" viewBox="0 0 227 164" fill="none" xmlns="http://www.w3.org/2000/svg">
<g clip-path="url(#clip0_0_304)">
<path d="M19.8625 135.975V152.658H15.3656V145.674H4.49687V152.658H0V135.975C-1.64067e-08 135.298 0.133409 134.627 0.392609 134C0.651808 133.374 1.03172 132.806 1.51065 132.326C1.98958 131.847 2.55814 131.467 3.18386 131.208C3.80958 130.949 4.48021 130.816 5.15744 130.816H14.7051C16.0727 130.816 17.3843 131.359 18.3515 132.327C19.3187 133.294 19.8622 134.607 19.8625 135.975ZM15.3645 141.174V136.665C15.3646 136.487 15.3299 136.312 15.2622 136.148C15.1945 135.984 15.0952 135.835 14.97 135.71C14.8447 135.584 14.696 135.485 14.5324 135.417C14.3687 135.349 14.1933 135.314 14.0161 135.314H5.84412C5.66695 135.314 5.49152 135.349 5.32785 135.417C5.16418 135.485 5.01549 135.584 4.89026 135.71C4.76504 135.835 4.66574 135.984 4.59805 136.148C4.53035 136.312 4.49559 136.487 4.49574 136.665V141.174H15.3645Z" fill="white"/>
<path d="M38.2972 147.763C38.4225 147.638 38.5219 147.489 38.5897 147.325C38.6574 147.161 38.6923 146.986 38.6922 146.809V130.816H43.189V147.498C43.189 148.176 43.0556 148.847 42.7964 149.473C42.5372 150.099 42.1573 150.668 41.6784 151.147C41.1994 151.626 40.6309 152.006 40.0052 152.265C39.3794 152.524 38.7088 152.658 38.0316 152.658H28.4885C27.1209 152.658 25.8092 152.114 24.842 151.147C23.8749 150.179 23.3314 148.867 23.3311 147.498V130.816H27.8279V146.809C27.8279 147.166 27.969 147.508 28.2204 147.761C28.4717 148.014 28.813 148.157 29.1695 148.159H37.3415C37.519 148.159 37.6949 148.124 37.8589 148.056C38.0229 147.988 38.1718 147.889 38.2972 147.763Z" fill="white"/>
<path d="M65.6722 135.314H57.6637V152.658H53.1668V135.314H45.1571V130.815H65.6722V135.314Z" fill="white"/>
<path d="M72.6071 130.816H84.1296C84.7939 130.816 85.4517 130.946 86.0654 131.201C86.6791 131.455 87.2368 131.828 87.7066 132.298C88.1763 132.767 88.549 133.325 88.8032 133.939C89.0574 134.554 89.1883 135.212 89.1883 135.876V147.596C89.1884 148.261 89.0577 148.919 88.8035 149.533C88.5494 150.147 88.1767 150.705 87.707 151.175C87.2372 151.645 86.6795 152.018 86.0657 152.273C85.4518 152.527 84.794 152.658 84.1296 152.658H72.6071C71.2654 152.658 69.9787 152.124 69.0301 151.175C68.0814 150.226 67.5484 148.938 67.5484 147.596V135.876C67.5487 134.534 68.0818 133.247 69.0305 132.298C69.9791 131.349 71.2656 130.816 72.6071 130.816ZM73.4617 148.159H83.275C83.6506 148.159 84.0109 148.01 84.2766 147.744C84.5422 147.478 84.6914 147.118 84.6914 146.742V136.732C84.6914 136.356 84.5422 135.995 84.2766 135.729C84.0109 135.464 83.6506 135.314 83.275 135.314H73.4617C73.0861 135.314 72.7258 135.464 72.4601 135.729C72.1945 135.995 72.0453 136.356 72.0453 136.732V146.742C72.0453 147.118 72.1945 147.478 72.4601 147.744C72.7258 148.01 73.0861 148.159 73.4617 148.159Z" fill="white"/>
<path d="M97.2945 147.763C97.5476 148.016 97.8909 148.159 98.249 148.159H111.798V152.658H97.5612C96.8839 152.658 96.2131 152.524 95.5874 152.265C94.9616 152.006 94.3929 151.626 93.914 151.146C93.4351 150.667 93.0552 150.098 92.796 149.472C92.5369 148.846 92.4036 148.175 92.4038 147.497V135.975C92.4036 135.298 92.5368 134.627 92.7958 134.001C93.0548 133.375 93.4346 132.806 93.9133 132.327C94.392 131.848 94.9603 131.468 95.5859 131.208C96.2114 130.949 96.8818 130.816 97.5589 130.816H111.519V135.314H98.249C98.0718 135.314 97.8963 135.349 97.7326 135.417C97.5688 135.485 97.4201 135.584 97.2948 135.71C97.1694 135.835 97.07 135.984 97.0022 136.148C96.9344 136.312 96.8995 136.487 96.8995 136.665V146.809C96.9 147.166 97.042 147.509 97.2945 147.763Z" fill="white"/>
<path d="M133.906 148.159V152.658H114.515V130.816H133.625V135.314H119.01V139.487H132.781V143.987H119.01V148.159H133.906Z" fill="white"/>
<path d="M158.609 130.815V152.639H153.038L141.558 137.83V152.659H137.061V130.815H142.12L154.114 146.381V130.815H158.609Z" fill="white"/>
<path d="M181.247 135.314H173.237V152.658H168.742V135.314H160.732V130.815H181.247V135.314Z" fill="white"/>
<path d="M202.764 148.159V152.658H183.373V130.816H202.484V135.314H187.869V139.487H201.64V143.987H187.869V148.159H202.764Z" fill="white"/>
<path d="M214.836 144.549H210.417V152.658H205.92V130.816H220.252C220.917 130.816 221.574 130.946 222.188 131.201C222.802 131.455 223.36 131.828 223.829 132.298C224.299 132.767 224.672 133.325 224.926 133.939C225.18 134.554 225.311 135.212 225.311 135.876V139.487C225.311 140.748 224.84 141.963 223.99 142.895C223.141 143.827 221.975 144.408 220.72 144.525L227 152.658H221.098L214.836 144.549ZM210.415 140.05H219.396C219.582 140.05 219.766 140.014 219.938 139.943C220.11 139.872 220.266 139.767 220.398 139.636C220.529 139.504 220.634 139.348 220.705 139.176C220.776 139.003 220.812 138.819 220.812 138.633V136.732C220.812 136.356 220.663 135.995 220.397 135.729C220.131 135.464 219.771 135.314 219.396 135.314H210.414L210.415 140.05Z" fill="white"/>
<path d="M0 162.588L2.1338 157.023H3.2915L5.46843 162.588H4.30051L3.82722 161.328H1.589L1.135 162.588H0ZM1.84438 160.449H3.56503L2.69108 158.19L1.84438 160.449Z" fill="white"/>
<path d="M6.23115 162.588V157.023H8.22308C8.76561 157.023 9.20334 157.142 9.53627 157.379C9.8692 157.616 10.0353 157.966 10.0345 158.43C10.0369 158.6 9.99793 158.768 9.92104 158.92C9.76616 159.218 9.51374 159.454 9.20599 159.588C9.5013 159.679 9.76183 159.858 9.95282 160.101C10.154 160.36 10.258 160.682 10.2468 161.01C10.2526 161.303 10.1703 161.591 10.0107 161.836C9.84347 162.083 9.60965 162.277 9.33651 162.395C9.01083 162.536 8.65843 162.605 8.30366 162.596L6.23115 162.588ZM7.264 159.367H8.06985C8.24304 159.371 8.41513 159.339 8.57493 159.272C8.71077 159.216 8.82719 159.121 8.90975 158.999C8.98952 158.87 9.02903 158.72 9.02325 158.568C9.02938 158.461 9.00966 158.355 8.96578 158.258C8.9219 158.161 8.85516 158.076 8.77128 158.01C8.55877 157.868 8.30547 157.801 8.05056 157.817H7.264V159.367ZM7.264 161.797H8.13341C8.48072 161.797 8.74064 161.727 8.91316 161.588C9.00165 161.511 9.07099 161.414 9.1157 161.305C9.16042 161.197 9.17928 161.079 9.1708 160.962C9.17828 160.845 9.1592 160.727 9.11497 160.619C9.07075 160.51 9.00254 160.413 8.91543 160.334C8.74366 160.188 8.4845 160.115 8.13795 160.115H7.264V161.797Z" fill="white"/>
<path d="M12.3636 162.588V157.967H10.8256V157.021H14.9389V157.967H13.4009V162.588H12.3636Z" fill="white"/>
<path d="M18.1895 162.708C17.7888 162.711 17.3912 162.637 17.0193 162.487C16.6699 162.346 16.3518 162.137 16.0829 161.873C15.8178 161.61 15.6085 161.296 15.4678 160.949C15.1757 160.213 15.1757 159.392 15.4678 158.655C15.6088 158.31 15.818 157.996 16.0829 157.733C16.3513 157.469 16.6696 157.26 17.0193 157.12C17.3916 156.972 17.789 156.898 18.1895 156.902C18.5889 156.899 18.9848 156.976 19.354 157.129C19.7031 157.272 20.0205 157.483 20.2881 157.749C20.6922 158.165 20.9661 158.69 21.0762 159.259C21.1863 159.828 21.1278 160.417 20.9078 160.954C20.7641 161.3 20.5535 161.613 20.2881 161.877C20.0199 162.141 19.7026 162.35 19.354 162.492C18.9837 162.639 18.5881 162.713 18.1895 162.708ZM18.1895 161.733C18.4405 161.735 18.6896 161.689 18.9227 161.596C19.1473 161.507 19.351 161.373 19.5206 161.201C19.6903 161.029 19.8222 160.823 19.9079 160.597C20.0056 160.344 20.0537 160.074 20.0498 159.802C20.0588 159.446 19.9738 159.093 19.8035 158.78C19.6469 158.499 19.4155 158.266 19.135 158.108C18.8462 157.947 18.5201 157.865 18.1895 157.869C17.9379 157.867 17.6882 157.913 17.454 158.005C17.2327 158.093 17.0318 158.225 16.8638 158.394C16.693 158.568 16.5594 158.775 16.4711 159.003C16.3734 159.256 16.3253 159.526 16.3292 159.798C16.3198 160.154 16.4044 160.507 16.5744 160.82C16.7294 161.102 16.9597 161.334 17.2395 161.492C17.5297 161.654 17.8572 161.737 18.1895 161.733Z" fill="white"/>
<path d="M22.1881 162.588V157.023H23.1846L25.4024 160.658H24.9972L27.1231 157.023H28.1094V162.588H27.1038L27.1197 158.373L27.3104 158.441L25.5137 161.439H24.7873L22.9463 158.441L23.1177 158.373L23.1336 162.588H22.1881Z" fill="white"/>
<path d="M32.1069 162.708C31.7062 162.711 31.3086 162.637 30.9367 162.487C30.5873 162.346 30.2691 162.137 30.0003 161.873C29.7351 161.61 29.5259 161.296 29.3852 160.949C29.093 160.213 29.093 159.392 29.3852 158.655C29.5262 158.31 29.7354 157.996 30.0003 157.733C30.2687 157.469 30.587 157.26 30.9367 157.12C31.3089 156.972 31.7064 156.898 32.1069 156.902C32.5063 156.899 32.9022 156.976 33.2714 157.129C33.6206 157.272 33.9381 157.483 34.2055 157.749C34.6096 158.165 34.8835 158.69 34.9936 159.259C35.1037 159.828 35.0451 160.417 34.8252 160.954C34.6815 161.301 34.47 161.616 34.2032 161.88C33.9364 162.144 33.6196 162.352 33.2714 162.492C32.9011 162.639 32.5054 162.713 32.1069 162.708ZM32.1069 161.733C32.3579 161.735 32.6069 161.689 32.8401 161.596C33.0621 161.508 33.2638 161.375 33.4326 161.206C33.6043 161.032 33.7383 160.825 33.8264 160.597C33.9232 160.344 33.9709 160.074 33.9671 159.802C33.9762 159.446 33.8912 159.093 33.7209 158.78C33.5644 158.499 33.3335 158.266 33.0535 158.108C32.7642 157.947 32.4378 157.865 32.1069 157.869C31.8553 157.867 31.6056 157.913 31.3714 158.005C31.1503 158.092 30.9497 158.225 30.7823 158.394C30.6108 158.568 30.4767 158.775 30.3885 159.003C30.2908 159.256 30.2427 159.526 30.2466 159.798C30.2372 160.154 30.3218 160.507 30.4918 160.82C30.6467 161.102 30.8771 161.334 31.1569 161.492C31.447 161.654 31.7746 161.737 32.1069 161.733Z" fill="white"/>
<path d="M36.1055 162.588V157.023H39.6978V157.932H37.1383V159.295H38.0963C38.7084 159.295 39.198 159.434 39.565 159.712C39.9316 159.991 40.1154 160.401 40.1154 160.945C40.1247 161.26 40.0402 161.571 39.8725 161.838C39.7034 162.092 39.4618 162.29 39.1791 162.405C38.8338 162.544 38.4637 162.611 38.0917 162.601L36.1055 162.588ZM37.1383 161.793H38.0123C38.3437 161.793 38.5987 161.721 38.7773 161.575C38.8681 161.498 38.9397 161.401 38.9864 161.291C39.0331 161.181 39.0536 161.062 39.0463 160.943C39.052 160.824 39.0314 160.706 38.9861 160.596C38.9408 160.486 38.8718 160.388 38.7841 160.308C38.5779 160.145 38.3188 160.064 38.0565 160.081H37.1383V161.793Z" fill="white"/>
<path d="M41.2073 162.588V157.023H42.2288V160.924L44.8393 157.023H45.854V162.588H44.8325V158.659L42.222 162.592L41.2073 162.588Z" fill="white"/>
<path d="M47.1025 162.688L46.7325 161.738C46.8911 161.69 47.0435 161.624 47.1865 161.54C47.3142 161.463 47.4225 161.358 47.5032 161.232C47.5987 161.073 47.6666 160.899 47.704 160.717C47.7598 160.45 47.7943 160.178 47.8073 159.906C47.827 159.579 47.8368 159.179 47.8368 158.706V157.021H51.8264V162.586H50.7935V157.965H48.822V158.666C48.822 159.238 48.8042 159.734 48.7687 160.152C48.7432 160.512 48.6855 160.868 48.5962 161.218C48.5319 161.476 48.4236 161.721 48.2761 161.942C48.1466 162.13 47.9787 162.288 47.7835 162.407C47.5704 162.531 47.3413 162.626 47.1025 162.688Z" fill="white"/>
<path d="M53.2315 162.588V157.023H54.253V160.924L56.8635 157.023H57.8725V162.588H56.851V158.659L54.2405 162.592L53.2315 162.588Z" fill="white"/>
<path d="M61.1822 162.588V157.023H65.7755V162.588H64.7427V157.967H62.215V162.588H61.1822Z" fill="white"/>
<path d="M69.7741 162.708C69.3734 162.711 68.9759 162.637 68.6039 162.487C68.2543 162.346 67.936 162.138 67.6676 161.873C67.4024 161.609 67.1928 161.295 67.0513 160.949C66.7608 160.212 66.7608 159.392 67.0513 158.655C67.1937 158.308 67.4046 157.993 67.6713 157.729C67.9381 157.466 68.2553 157.258 68.6039 157.12C68.9762 156.972 69.3736 156.898 69.7741 156.902C70.1735 156.899 70.5694 156.976 70.9386 157.129C71.2877 157.272 71.6051 157.483 71.8727 157.749C72.2768 158.165 72.5507 158.69 72.6608 159.259C72.7709 159.828 72.7124 160.417 72.4924 160.954C72.3487 161.3 72.1381 161.613 71.8727 161.877C71.6045 162.141 71.2872 162.35 70.9386 162.492C70.5683 162.639 70.1727 162.713 69.7741 162.708ZM69.7741 161.733C70.0251 161.735 70.2742 161.689 70.5073 161.596C70.7319 161.507 70.9356 161.373 71.1052 161.201C71.2749 161.029 71.4068 160.823 71.4925 160.597C71.5898 160.344 71.6376 160.074 71.6333 159.802C71.6429 159.446 71.5579 159.093 71.387 158.78C71.2311 158.499 71.0001 158.266 70.7196 158.108C70.4308 157.947 70.1047 157.865 69.7741 157.869C69.5225 157.866 69.2728 157.912 69.0386 158.005C68.8172 158.092 68.6162 158.225 68.4484 158.394C68.2773 158.568 68.1432 158.775 68.0546 159.003C67.9578 159.257 67.9101 159.526 67.9139 159.798C67.9048 160.154 67.9889 160.506 68.1579 160.82C68.3132 161.102 68.5439 161.335 68.8241 161.492C69.1142 161.655 69.4418 161.738 69.7741 161.733Z" fill="white"/>
<path d="M77.2697 162.588V157.967H75.2505V158.668C75.2562 159.23 75.2236 159.793 75.1529 160.351C75.1067 160.742 75.0038 161.125 74.8476 161.487C74.7255 161.764 74.5353 162.005 74.2948 162.189C74.0438 162.368 73.7594 162.496 73.4583 162.563L73.0963 161.712C73.3053 161.668 73.5034 161.583 73.6785 161.461C73.8428 161.333 73.9663 161.161 74.0338 160.964C74.133 160.678 74.1933 160.38 74.2131 160.077C74.2472 159.706 74.2642 159.235 74.2642 158.662V157.015H78.3025V162.58L77.2697 162.588ZM73.094 163.997V161.714L73.75 161.746L74.1076 161.639H79.1901V163.997H78.2128V162.588H74.0735V163.997H73.094Z" fill="white"/>
<path d="M83.6075 162.708C83.2107 162.712 82.8155 162.657 82.435 162.544C82.0989 162.444 81.783 162.285 81.5021 162.075L81.9742 161.256C82.1774 161.43 82.4115 161.564 82.6643 161.651C82.9351 161.749 83.2209 161.798 83.5088 161.797C83.7333 161.802 83.9568 161.766 84.1682 161.69C84.3359 161.63 84.4848 161.527 84.5995 161.391C84.7011 161.265 84.7553 161.108 84.7527 160.946C84.7598 160.831 84.7389 160.716 84.6918 160.611C84.6448 160.506 84.573 160.414 84.4826 160.343C84.3055 160.204 84.0278 160.135 83.6495 160.135H82.5485V159.32H83.57C83.7561 159.324 83.9413 159.293 84.116 159.229C84.256 159.178 84.3782 159.087 84.4678 158.968C84.5521 158.849 84.5955 158.706 84.5915 158.56C84.5961 158.419 84.5534 158.281 84.4701 158.167C84.3767 158.052 84.2504 157.968 84.108 157.926C83.9185 157.867 83.7207 157.84 83.5224 157.844C83.2684 157.844 83.0163 157.887 82.7767 157.972C82.551 158.049 82.3425 158.169 82.1627 158.326L81.6825 157.566C81.9373 157.344 82.2347 157.175 82.5565 157.071C82.9102 156.954 83.2805 156.896 83.6529 156.898C84.0121 156.89 84.3696 156.95 84.7062 157.076C84.9775 157.175 85.2141 157.351 85.3872 157.582C85.5494 157.815 85.6326 158.093 85.6244 158.377C85.6244 158.549 85.5856 158.718 85.5109 158.872C85.4345 159.032 85.3317 159.177 85.2067 159.302C85.0886 159.422 84.9494 159.52 84.7958 159.59C85.091 159.68 85.3529 159.856 85.5484 160.095C85.7463 160.349 85.8474 160.665 85.8332 160.986C85.8361 161.299 85.7391 161.606 85.5563 161.86C85.3577 162.132 85.0905 162.345 84.7822 162.479C84.4119 162.64 84.011 162.718 83.6075 162.708Z" fill="white"/>
<path d="M86.2827 162.588L88.4165 157.023H89.5685L91.7466 162.588H90.5821L90.1099 161.328H87.8717L87.4177 162.588H86.2827ZM88.1259 160.449H89.8477L88.9727 158.19L88.1259 160.449Z" fill="white"/>
<path d="M92.5138 162.588V157.023H93.5467V159.187H94.5841V160.135H93.5467V162.593L92.5138 162.588ZM95.9518 162.588L93.6818 159.67L95.7043 157.021H96.9846L94.9416 159.665L97.2786 162.588H95.9518Z" fill="white"/>
<path d="M97.5408 162.588L99.6757 157.023H100.828L103.006 162.588H101.841L101.368 161.328H99.1309L98.6769 162.588H97.5408ZM99.3851 160.449H101.106L100.232 158.19L99.3851 160.449Z" fill="white"/>
<path d="M105.367 162.708C104.97 162.712 104.575 162.657 104.194 162.544C103.858 162.444 103.541 162.285 103.26 162.075L103.732 161.256C103.935 161.43 104.169 161.564 104.422 161.651C104.693 161.749 104.979 161.798 105.267 161.797C105.491 161.802 105.715 161.766 105.926 161.69C106.094 161.631 106.243 161.528 106.357 161.391C106.459 161.265 106.513 161.108 106.511 160.946C106.518 160.831 106.497 160.716 106.45 160.611C106.403 160.506 106.331 160.414 106.241 160.343C106.06 160.207 105.781 160.139 105.402 160.139H104.306V159.323H105.328C105.514 159.327 105.699 159.297 105.874 159.232C106.014 159.181 106.136 159.09 106.226 158.971C106.311 158.852 106.354 158.709 106.349 158.563C106.354 158.422 106.311 158.284 106.228 158.17C106.135 158.055 106.008 157.971 105.866 157.93C105.676 157.871 105.479 157.843 105.28 157.848C105.026 157.848 104.773 157.892 104.533 157.977C104.308 158.054 104.1 158.175 103.921 158.332L103.439 157.572C103.694 157.349 103.991 157.181 104.313 157.077C104.667 156.96 105.038 156.901 105.411 156.904C105.77 156.896 106.127 156.956 106.463 157.081C106.734 157.18 106.971 157.356 107.144 157.588C107.306 157.82 107.389 158.099 107.381 158.383C107.381 158.554 107.342 158.724 107.268 158.878C107.191 159.037 107.088 159.182 106.964 159.307C106.846 159.428 106.706 159.526 106.553 159.596C106.848 159.686 107.11 159.862 107.305 160.101C107.504 160.354 107.605 160.67 107.59 160.991C107.593 161.305 107.496 161.612 107.313 161.866C107.115 162.138 106.848 162.351 106.539 162.485C106.169 162.643 105.769 162.719 105.367 162.708Z" fill="white"/>
<path d="M110.939 162.588V157.023H111.961V160.924L114.571 157.023H115.582V162.588H114.56V158.659L111.95 162.592L110.939 162.588Z" fill="white"/>
<path d="M118.578 162.708C118.181 162.712 117.786 162.657 117.406 162.544C117.069 162.444 116.753 162.285 116.471 162.075L116.945 161.256C117.147 161.43 117.381 161.564 117.634 161.651C117.904 161.749 118.19 161.798 118.478 161.797C118.703 161.802 118.927 161.766 119.139 161.69C119.306 161.63 119.455 161.527 119.57 161.391C119.671 161.265 119.725 161.108 119.722 160.946C119.729 160.831 119.708 160.716 119.661 160.611C119.614 160.506 119.542 160.414 119.452 160.343C119.273 160.207 118.998 160.139 118.613 160.139H117.513V159.323H118.535C118.721 159.327 118.907 159.297 119.082 159.232C119.222 159.18 119.344 159.09 119.434 158.971C119.518 158.852 119.561 158.709 119.556 158.563C119.561 158.423 119.519 158.284 119.436 158.17C119.342 158.056 119.216 157.972 119.074 157.93C118.884 157.871 118.686 157.843 118.487 157.848C118.234 157.848 117.982 157.891 117.743 157.975C117.517 158.052 117.308 158.172 117.129 158.329L116.647 157.57C116.903 157.347 117.2 157.179 117.522 157.074C117.876 156.958 118.246 156.899 118.619 156.902C118.978 156.893 119.335 156.953 119.672 157.079C119.943 157.178 120.18 157.354 120.353 157.585C120.515 157.818 120.598 158.097 120.589 158.38C120.589 158.552 120.55 158.721 120.476 158.876C120.399 159.035 120.296 159.18 120.172 159.305C120.053 159.426 119.914 159.524 119.76 159.593C120.055 159.684 120.317 159.859 120.513 160.099C120.711 160.352 120.812 160.668 120.797 160.989C120.8 161.303 120.703 161.609 120.521 161.864C120.322 162.135 120.055 162.349 119.746 162.483C119.377 162.641 118.979 162.718 118.578 162.708Z" fill="white"/>
<path d="M123.355 162.588L124.984 160.266C124.605 160.195 124.257 160.006 123.992 159.725C123.748 159.442 123.622 159.076 123.637 158.703C123.627 158.382 123.714 158.066 123.885 157.795C124.058 157.537 124.303 157.336 124.589 157.216C124.928 157.075 125.292 157.007 125.659 157.015H127.734V162.58H126.701V160.401H126.029L124.554 162.58L123.355 162.588ZM125.683 159.562H126.705V157.888H125.731C125.458 157.871 125.188 157.944 124.96 158.093C124.867 158.164 124.792 158.258 124.744 158.365C124.695 158.472 124.674 158.589 124.682 158.706C124.675 158.825 124.693 158.943 124.737 159.053C124.781 159.162 124.849 159.261 124.936 159.341C125.102 159.488 125.353 159.567 125.683 159.567V159.562Z" fill="white"/>
<path d="M129.137 162.588V157.023H133.731V162.588H132.697V157.967H130.171V162.588H129.137Z" fill="white"/>
<path d="M137.729 162.708C137.328 162.711 136.931 162.637 136.559 162.487C136.209 162.346 135.891 162.137 135.622 161.873C135.357 161.61 135.148 161.296 135.007 160.949C134.715 160.213 134.715 159.392 135.007 158.655C135.148 158.31 135.357 157.996 135.622 157.733C135.891 157.469 136.209 157.26 136.559 157.12C136.931 156.972 137.328 156.898 137.729 156.902C138.128 156.899 138.524 156.976 138.893 157.129C139.244 157.272 139.563 157.483 139.832 157.75C140.236 158.166 140.51 158.691 140.62 159.26C140.73 159.829 140.672 160.419 140.452 160.955C140.308 161.302 140.097 161.617 139.83 161.881C139.563 162.145 139.246 162.353 138.898 162.493C138.526 162.641 138.129 162.714 137.729 162.708ZM137.729 161.733C137.98 161.735 138.229 161.689 138.462 161.596C138.684 161.508 138.886 161.375 139.055 161.206C139.226 161.032 139.36 160.825 139.448 160.597C139.545 160.344 139.593 160.074 139.589 159.802C139.599 159.446 139.514 159.093 139.343 158.78C139.186 158.499 138.955 158.266 138.675 158.108C138.386 157.947 138.06 157.865 137.729 157.869C137.478 157.867 137.228 157.912 136.995 158.005C136.773 158.092 136.572 158.225 136.404 158.394C136.233 158.568 136.099 158.775 136.01 159.003C135.913 159.256 135.865 159.526 135.869 159.798C135.859 160.154 135.944 160.507 136.114 160.82C136.269 161.102 136.499 161.334 136.779 161.492C137.069 161.654 137.397 161.737 137.729 161.733Z" fill="white"/>
<path d="M141.727 162.588V157.023H142.76V159.187H145.288V157.023H146.322V162.588H145.288V160.135H142.76V162.593L141.727 162.588Z" fill="white"/>
<path d="M147.724 162.588V157.023H148.745V160.924L151.356 157.023H152.365V162.588H151.343V158.659L148.733 162.592L147.724 162.588Z" fill="white"/>
<path d="M153.769 162.588V157.023H154.79V160.924L157.401 157.023H158.411V162.588H157.389V158.659L154.779 162.592L153.769 162.588Z" fill="white"/>
<path d="M159.687 163.865L159.353 163.411C159.554 163.32 159.742 163.2 159.909 163.056C160.049 162.943 160.165 162.802 160.25 162.643C160.126 162.653 160.001 162.632 159.887 162.583C159.782 162.539 159.692 162.466 159.628 162.373C159.561 162.277 159.527 162.163 159.53 162.047C159.526 161.961 159.541 161.875 159.573 161.795C159.605 161.715 159.653 161.643 159.715 161.583C159.778 161.524 159.853 161.477 159.934 161.447C160.016 161.417 160.102 161.403 160.189 161.406C160.288 161.402 160.386 161.42 160.477 161.457C160.568 161.495 160.651 161.551 160.718 161.623C160.86 161.786 160.933 161.998 160.92 162.214C160.919 162.414 160.872 162.612 160.783 162.792C160.68 163.001 160.541 163.19 160.372 163.35C160.165 163.549 159.935 163.722 159.687 163.865Z" fill="white"/>
<path d="M163.906 162.588V157.023H164.939V159.187H165.978V160.135H164.939V162.593L163.906 162.588ZM167.344 162.588L165.074 159.67L167.097 157.021H168.377L166.334 159.665L168.671 162.588H167.344Z" fill="white"/>
<path d="M171.726 162.708C171.325 162.711 170.927 162.637 170.555 162.487C170.206 162.346 169.888 162.137 169.619 161.873C169.354 161.61 169.145 161.296 169.004 160.949C168.712 160.213 168.712 159.392 169.004 158.655C169.145 158.31 169.354 157.996 169.619 157.733C169.887 157.469 170.206 157.26 170.555 157.12C170.928 156.972 171.325 156.898 171.726 156.902C172.125 156.899 172.521 156.976 172.89 157.129C173.239 157.272 173.556 157.483 173.824 157.749C174.228 158.165 174.502 158.69 174.612 159.259C174.722 159.828 174.664 160.417 174.444 160.954C174.3 161.3 174.09 161.613 173.824 161.877C173.556 162.141 173.239 162.35 172.89 162.492C172.52 162.639 172.124 162.713 171.726 162.708ZM171.726 161.733C171.977 161.735 172.226 161.689 172.459 161.596C172.683 161.507 172.887 161.373 173.057 161.201C173.226 161.029 173.358 160.823 173.444 160.597C173.542 160.344 173.59 160.074 173.586 159.802C173.595 159.446 173.51 159.093 173.339 158.78C173.183 158.499 172.952 158.266 172.671 158.108C172.382 157.947 172.056 157.865 171.726 157.869C171.474 157.867 171.224 157.913 170.99 158.005C170.769 158.093 170.568 158.225 170.4 158.394C170.229 158.568 170.095 158.775 170.007 159.003C169.909 159.256 169.861 159.526 169.865 159.798C169.856 160.154 169.94 160.507 170.11 160.82C170.265 161.102 170.496 161.334 170.776 161.492C171.066 161.654 171.393 161.737 171.726 161.733Z" fill="white"/>
<path d="M175.725 162.588V157.023H177.813C178.178 157.016 178.541 157.088 178.877 157.232C179.173 157.359 179.426 157.568 179.607 157.834C179.788 158.116 179.88 158.446 179.87 158.781C179.881 159.115 179.797 159.444 179.626 159.731C179.456 159.997 179.209 160.205 178.917 160.326C178.559 160.471 178.175 160.541 177.789 160.53H176.759V162.591L175.725 162.588ZM176.759 159.649H177.781C178.055 159.666 178.327 159.593 178.556 159.442C178.741 159.305 178.833 159.09 178.834 158.798C178.843 158.674 178.821 158.55 178.772 158.435C178.723 158.321 178.647 158.22 178.55 158.141C178.329 157.981 178.061 157.901 177.789 157.914H176.756L176.759 159.649Z" fill="white"/>
<path d="M180.825 162.588V157.023H184.525V157.932H181.858V159.28H184.139V160.127H181.858V161.679H184.551V162.587L180.825 162.588Z" fill="white"/>
<path d="M185.753 162.588V157.023H186.774V160.924L189.385 157.023H190.394V162.588H189.372V158.659L186.762 162.592L185.753 162.588Z" fill="white"/>
<path d="M193.705 162.588V157.023H194.726V160.924L197.337 157.023H198.347V162.588H197.325V158.659L194.715 162.592L193.705 162.588Z" fill="white"/>
<path d="M201.657 162.588V157.023H202.691V159.187H203.733V160.135H202.695V162.593L201.657 162.588ZM205.095 162.588L202.825 159.67L204.847 157.021H206.127L204.084 159.665L206.421 162.588H205.095Z" fill="white"/>
<path d="M207.281 162.588V157.023H208.302V160.924L210.913 157.023H211.923V162.588H210.901V158.659L208.291 162.592L207.281 162.588Z" fill="white"/>
<path d="M214.354 162.588V157.967H212.812V157.021H216.926V157.967H215.388V162.588H214.354Z" fill="white"/>
<path d="M216.83 162.588L218.964 157.023H220.116L222.294 162.588H221.13L220.658 161.328H218.419L217.965 162.588H216.83ZM218.674 160.449H220.395L219.52 158.19L218.674 160.449Z" fill="white"/>
<path d="M222.62 162.588L224.25 160.266C223.87 160.195 223.523 160.006 223.258 159.725C223.014 159.442 222.887 159.077 222.903 158.703C222.893 158.382 222.98 158.066 223.151 157.795C223.324 157.537 223.569 157.336 223.855 157.216C224.194 157.075 224.558 157.007 224.925 157.015H227V162.58H225.967V160.401H225.298L223.822 162.58L222.62 162.588ZM224.949 159.562H225.971V157.888H224.997C224.724 157.872 224.454 157.944 224.225 158.093C224.132 158.165 224.058 158.258 224.009 158.365C223.96 158.472 223.939 158.589 223.947 158.706C223.939 158.825 223.958 158.943 224.002 159.053C224.046 159.162 224.114 159.261 224.201 159.341C224.368 159.488 224.617 159.567 224.949 159.567V159.562Z" fill="white"/>
<path d="M113.74 0L43.3951 115.67L72.4136 107.444L80.0181 107.582C80.2591 107.588 80.4984 107.542 80.7207 107.449C80.943 107.356 81.1433 107.217 81.3086 107.042C82.1849 106.12 83.8817 104.255 84.4095 103.152C84.4095 103.152 82.985 101.324 81.5186 100.707C80.9511 100.469 79.3065 100.049 77.4326 99.662C74.4169 99.0374 70.8122 98.5047 70.1811 98.9635L70.6476 87.9608C70.8437 88.2293 71.0963 88.4514 71.3876 88.6115C72.8903 89.4383 76.0252 90.883 80.6515 91.5837C80.6515 91.5837 81.3075 91.6745 82.2711 91.7052C83.3845 91.7416 84.9043 91.6927 86.2822 91.327C85.6918 90.0096 85.2652 88.6247 85.0121 87.2033C84.9883 87.0624 84.9667 86.9193 84.9474 86.7751C84.9474 86.7751 72.5351 84.7762 71.0278 83.2249L77.9751 75.5577C77.9751 75.5577 78.7061 69.7167 82.9044 65.7202C81.9738 67.7103 81.2552 69.7929 80.7604 71.9336C85.112 71.5929 90.0164 71.3998 94.688 71.2886C104.759 71.0512 113.745 71.209 113.745 71.209C113.745 71.209 122.728 71.0512 132.801 71.2886C137.473 71.4021 142.381 71.5963 146.731 71.9336C146.237 69.7937 145.518 67.7119 144.588 65.7224C148.788 69.7201 149.514 75.5577 149.514 75.5577L156.465 83.2249C154.955 84.7762 142.543 86.7751 142.543 86.7751C142.524 86.9193 142.502 87.0624 142.478 87.2033C142.224 88.6248 141.796 90.0098 141.205 91.327C142.583 91.6927 144.103 91.7416 145.216 91.7052C146.18 91.6745 146.837 91.5837 146.837 91.5837C151.464 90.8807 154.597 89.4383 156.099 88.6115C156.39 88.4514 156.643 88.2306 156.841 87.9642L157.308 98.9635C156.675 98.5093 153.07 99.0374 150.054 99.662C148.176 100.049 146.528 100.469 145.968 100.707C144.502 101.324 143.078 103.152 143.078 103.152C143.605 104.255 145.302 106.12 146.176 107.042C146.342 107.217 146.543 107.356 146.765 107.449C146.988 107.542 147.228 107.588 147.469 107.582L155.073 107.444L184.091 115.67L113.74 0ZM104.783 54.6845L113.74 39.9543L122.676 54.6481C116.371 54.5005 109.05 54.5981 104.783 54.6845Z" fill="white"/>
<path d="M113.739 84.4367C99.2829 84.4367 91.4094 85.6428 89.1678 86.0494C88.9757 86.084 88.8033 86.1889 88.6842 86.3436C88.565 86.4983 88.5076 86.6917 88.5231 86.8864C88.774 89.9529 90.3993 92.4514 91.2142 93.5213C91.4999 93.8947 91.8977 94.1666 92.3492 94.2969C99.746 96.4752 113.741 97.8358 113.741 97.8358C113.741 97.8358 127.736 96.473 135.133 94.2969C135.585 94.1666 135.982 93.8947 136.268 93.5213C137.083 92.4457 138.708 89.9517 138.959 86.8864C138.975 86.6917 138.917 86.4983 138.798 86.3436C138.679 86.1889 138.507 86.084 138.314 86.0494C136.071 85.6428 128.197 84.4367 113.739 84.4367Z" fill="white"/>
<path d="M142.782 109.511C141.281 108.772 138.696 105.484 137.595 104.024C137.432 103.807 137.22 103.631 136.975 103.513C136.731 103.394 136.462 103.336 136.19 103.343C133.46 103.419 124.686 103.637 113.739 103.637C102.792 103.637 94.0181 103.423 91.2873 103.35C91.0159 103.343 90.7469 103.401 90.5027 103.52C90.2584 103.638 90.0461 103.814 89.8833 104.031C88.7835 105.49 86.1979 108.778 84.6963 109.518C82.7521 110.467 70.8925 109.028 70.8925 109.028C70.6904 110.218 71.5303 110.591 71.5303 110.591C73.8571 112.09 113.739 111.739 113.739 111.739C113.739 111.739 153.621 112.095 155.948 110.595C155.948 110.595 156.788 110.223 156.586 109.033C156.586 109.028 144.726 110.467 142.782 109.511Z" fill="white"/>
<path d="M113.739 84.4367C128.197 84.4367 136.071 85.6428 138.312 86.0494C138.504 86.084 138.677 86.1889 138.796 86.3436C138.915 86.4983 138.972 86.6917 138.957 86.8864C138.706 89.9529 137.081 92.4514 136.266 93.5213C135.98 93.8947 135.582 94.1666 135.131 94.2969C127.734 96.4752 113.738 97.8358 113.738 97.8358C113.738 97.8358 99.7437 96.473 92.3469 94.2969C91.8954 94.1666 91.4976 93.8947 91.2119 93.5213C90.3993 92.4469 88.774 89.9483 88.5231 86.8819C88.5076 86.6872 88.565 86.4937 88.6842 86.339C88.8033 86.1843 88.9757 86.0795 89.1678 86.0449C91.4094 85.6428 99.2829 84.4367 113.739 84.4367Z" fill="white"/>
<path d="M84.6963 109.511C86.1979 108.772 88.7823 105.484 89.8833 104.024C90.0461 103.807 90.2584 103.632 90.5027 103.513C90.7469 103.395 91.0159 103.336 91.2873 103.343C94.0181 103.419 102.793 103.637 113.739 103.637C124.685 103.637 133.46 103.419 136.19 103.343C136.462 103.336 136.731 103.394 136.975 103.513C137.22 103.631 137.432 103.807 137.595 104.024C138.695 105.484 141.281 108.772 142.782 109.511C144.726 110.467 156.586 109.033 156.586 109.033C156.788 110.223 155.948 110.595 155.948 110.595C153.621 112.095 113.739 111.744 113.739 111.744C113.739 111.744 73.8571 112.095 71.5303 110.595C71.5303 110.595 70.6904 110.223 70.8925 109.033C70.8925 109.028 82.7521 110.467 84.6963 109.511Z" fill="white"/>
</g>
<defs>
<clipPath id="clip0_0_304">
<rect width="227" height="164" fill="white"/>
</clipPath>
</defs>
</svg>
